<svg width="1046" height="1046" viewBox="0 0 1046 1046" fill="none" xmlns="http://www.w3.org/2000/svg">
<g filter="url(#filter0_d_402_88)">
<g clip-path="url(#clip0_402_88)">
<rect x="11" y="7" width="1024" height="1024" rx="150" fill="white"/>
<path d="M1035 7H11V1031H1035V7Z" fill="#171717"/>
<path d="M524.429 519.002C524.429 456.165 575.369 405.224 638.207 405.224C701.044 405.224 751.985 456.165 751.985 519.002C751.985 581.84 701.044 632.78 638.207 632.78C575.369 632.78 524.429 581.84 524.429 519.002Z" fill="#1ABCFE"/>
<path d="M296.867 746.554C296.867 683.717 347.807 632.776 410.644 632.776H524.422V746.554C524.422 809.392 473.483 860.332 410.644 860.332C347.807 860.332 296.867 809.392 296.867 746.554Z" fill="#0ACF83"/>
<path d="M524.429 177.667V405.222H638.207C701.045 405.222 751.985 354.282 751.985 291.444C751.985 228.607 701.045 177.667 638.207 177.667H524.429Z" fill="#FF7262"/>
<path d="M296.867 291.444C296.867 354.282 347.807 405.222 410.644 405.222H524.422V177.667H410.644C347.807 177.667 296.867 228.607 296.867 291.444Z" fill="#F24E1E"/>
<path d="M296.867 519.002C296.867 581.84 347.807 632.78 410.644 632.78H524.422V405.224H410.644C347.807 405.224 296.867 456.165 296.867 519.002Z" fill="#A259FF"/>
</g>
<rect x="7.5" y="3.5" width="1031" height="1031" rx="153.5" stroke="#8A226F" stroke-width="7" stroke-linecap="round" stroke-linejoin="round"/>
</g>
<defs>
<filter id="filter0_d_402_88" x="0" y="0" width="1046" height="1046" filterUnits="userSpaceOnUse" color-interpolation-filters="sRGB">
<feFlood flood-opacity="0" result="BackgroundImageFix"/>
<feColorMatrix in="SourceAlpha" type="matrix" values="0 0 0 0 0 0 0 0 0 0 0 0 0 0 0 0 0 0 127 0" result="hardAlpha"/>
<feOffset dy="4"/>
<feGaussianBlur stdDeviation="2"/>
<feComposite in2="hardAlpha" operator="out"/>
<feColorMatrix type="matrix" values="0 0 0 0 0 0 0 0 0 0 0 0 0 0 0 0 0 0 0.25 0"/>
<feBlend mode="normal" in2="BackgroundImageFix" result="effect1_dropShadow_402_88"/>
<feBlend mode="normal" in="SourceGraphic" in2="effect1_dropShadow_402_88" result="shape"/>
</filter>
<clipPath id="clip0_402_88">
<rect x="11" y="7" width="1024" height="1024" rx="150" fill="white"/>
</clipPath>
</defs>
</svg>
