<svg xmlns="http://www.w3.org/2000/svg" enable-background="new 0 0 512 512" version="1" viewBox="0 0 512 512" id="adobe-flash-player">
  <path fill="#D41818" d="M93.867,12.801h324.267c51.733,0,93.867,42.133,93.867,93.867v311.467
			c0,51.733-42.133,93.867-93.867,93.867H93.867c-51.733,0-93.867-42.133-93.867-93.867V106.668
			C0.001,54.934,42.134,12.801,93.867,12.801"></path>
  <path fill="#560000" d="M98.133,34.134h315.733c42.667,0,76.8,34.133,76.8,76.8v302.933c0,42.667-34.133,76.8-76.8,76.8H98.133
			c-42.667,0-76.8-34.133-76.8-76.8V110.934C21.333,68.268,55.466,34.134,98.133,34.134"></path>
  <path fill="#FFF" fill-rule="evenodd" d="M327.687,196.753c5.82-2.016,12.318-3.136,19.935-3.136v-45.475
		c-133.145,0.688-91.893,183.656-183.243,183.02v45.921c56.958,1.99,90.227-42.992,107.529-91.844h52.639v-45.699h-34.721
		C298.183,220.651,308.314,203.468,327.687,196.753z" clip-rule="evenodd"></path>
</svg>
