
          <svg xmlns="http://www.w3.org/2000/svg" width="40" height="38.028169014084504" viewBox="0 0 426 405">
            <path d="M197.20-76.17L197.20-245.61Q217.85-252.73 224.96-273.38L224.96-273.38L273.38-273.38L227.81-167.30Q227.81-154.49 234.93-144.16Q242.05-133.84 254.15-127.79Q266.26-121.74 281.21-121.74L281.21-121.74Q295.44-121.74 307.55-127.79Q319.65-133.84 326.77-144.16Q333.89-154.49 333.89-167.30L333.89-167.30L288.33-273.38L318.94-273.38L318.94-303.99L224.96-303.99Q220.69-316.80 208.95-325.34Q197.20-333.89 182.25-333.89L182.25-333.89Q167.30-333.89 155.55-325.34Q143.81-316.80 139.54-303.99L139.54-303.99L45.56-303.99L45.56-273.38L76.17-273.38L30.61-167.30Q30.61-154.49 37.73-144.16Q44.85-133.84 56.95-127.79Q69.06-121.74 83.29-121.74L83.29-121.74Q98.24-121.74 110.35-127.79Q122.45-133.84 129.57-144.16Q136.69-154.49 136.69-167.30L136.69-167.30L91.13-273.38L139.54-273.38Q146.65-252.73 167.30-245.61L167.30-245.61L167.30-76.17L30.61-76.17L30.61-45.56L333.89-45.56L333.89-76.17L197.20-76.17ZM281.21-233.51L309.68-167.30L252.73-167.30L281.21-233.51ZM83.29-233.51L111.77-167.30L54.82-167.30L83.29-233.51ZM182.25-273.38L182.25-273.38Q175.84-273.38 171.57-278.00Q167.30-282.63 167.30-288.33L167.30-288.33Q167.30-294.73 171.57-299.36Q175.84-303.99 182.25-303.99L182.25-303.99Q188.66-303.99 192.93-299.36Q197.20-294.73 197.20-288.33L197.20-288.33Q197.20-282.63 192.93-278.00Q188.66-273.38 182.25-273.38Z" fill="black" transform="translate(0, 344.25)"/>
          </svg>