
          <svg xmlns="http://www.w3.org/2000/svg" width="40" height="37.48031496062992" viewBox="0 0 1016 952">
            <path d="M839.23-631.72L839.23-631.72L838.39-632.56Q823.33-648.46 801.16-648.46Q778.99-648.46 763.92-632.56L763.92-632.56L725.44-594.91L650.13-670.21L687.78-708.70Q703.68-723.76 703.68-745.93Q703.68-768.11 687.78-783.17L687.78-783.17L686.95-784.01Q671.89-799.90 649.71-799.90Q627.54-799.90 612.48-784.01L612.48-784.01L572.32-743.84Q532.99-769.78 485.72-765.60Q438.44-761.41 404.14-727.11L404.14-727.11L383.22-706.19Q348.91-671.89 329.67-630.05L329.67-630.05Q310.42-587.38 306.24-543.03Q302.06-498.68 312.93-453.50L312.93-453.50Q324.65-409.16 350.59-370.67L350.59-370.67L347.24-367.32Q307.91-327.99 307.91-272.77Q307.91-217.55 346.40-178.22L346.40-178.22Q354.77-170.69 354.77-159.39Q354.77-148.10 346.40-139.73L346.40-139.73Q338.87-132.20 327.99-132.20Q317.12-132.20 308.75-139.73L308.75-139.73L234.28-215.04Q194.96-254.36 139.31-254.78Q83.67-255.20 44.35-215.87L44.35-215.87Q5.02-176.55 5.02-121.32Q5.02-66.10 44.35-26.78L44.35-26.78L51.04-19.24Q66.94-3.35 88.69-3.35Q110.45-3.35 126.34-19.24L126.34-19.24L127.18-20.08Q142.24-35.14 142.24-57.32Q142.24-79.49 127.18-94.55L127.18-94.55L120.49-102.08Q112.12-109.61 111.70-120.49Q111.28-131.36 118.81-139.73L118.81-139.73Q127.18-148.10 138.48-148.10Q149.77-148.10 157.30-139.73L157.30-139.73L232.61-65.26Q271.93-25.94 327.99-25.52Q384.05-25.10 423.38-65.26L423.38-65.26Q461.87-103.75 461.87-158.98Q461.87-214.20 422.54-253.53L422.54-253.53Q415.01-261.06 415.01-272.35Q415.01-283.65 422.54-291.18L422.54-291.18L425.89-295.36Q464.38-268.59 509.56-257.71L509.56-257.71Q553.91-246.83 598.25-251.02Q642.60-255.20 685.27-274.44L685.27-274.44Q727.11-293.69 761.41-327.16L761.41-327.16L782.33-348.08Q816.64-382.38 820.82-430.07Q825.00-477.77 799.07-517.09L799.07-517.09L839.23-557.25Q855.13-572.32 855.13-594.49Q855.13-616.66 839.23-631.72ZM744.68-386.56L744.68-386.56Q721.25-363.14 687.78-363.14Q654.31-363.14 630.89-386.56L630.89-386.56L441.79-575.66Q418.36-599.09 418.36-632.56Q418.36-666.03 441.79-689.46L441.79-689.46Q460.20-707.86 485.30-711.63Q510.40-715.39 532.99-704.52L532.99-704.52L497.85-670.21Q482.79-654.31 482.79-632.56Q482.79-610.80 497.85-594.91L497.85-594.91L498.68-594.07Q514.58-579.01 536.34-579.01Q558.09-579.01 573.99-594.07L573.99-594.07L611.64-632.56L687.78-556.42L649.29-518.77Q634.23-502.87 634.23-481.11Q634.23-459.36 649.29-443.46L649.29-443.46L650.13-442.62Q666.03-427.56 687.78-427.56Q709.54-427.56 725.44-442.62L725.44-442.62L760.58-477.77Q770.62-455.18 766.85-430.07Q763.09-404.97 744.68-386.56Z" fill="black" transform="translate(0, 809.1999999999999)"/>
          </svg>