
          <svg xmlns="http://www.w3.org/2000/svg" width="40" height="40" viewBox="0 0 384 384">
            <path d="M255.83-129.60L280.80-129.60L248.40-172.80L280.80-216L255.83-216L230.18-183.60L230.18-216L208.58-216L208.58-129.60L230.18-129.60L230.18-162L255.83-129.60ZM186.98-143.78L186.98-143.78L186.98-201.83Q186.98-207.90 182.93-211.95Q178.88-216 172.80-216L172.80-216L137.03-216Q130.95-216 126.56-211.95Q122.18-207.90 122.18-201.83L122.18-201.83L122.18-143.78Q122.18-137.70 126.56-133.65Q130.95-129.60 137.03-129.60L137.03-129.60L172.80-129.60Q178.88-129.60 182.93-133.65Q186.98-137.70 186.98-143.78ZM86.40-129.60L108-129.60L108-216L64.80-216L64.80-194.40L86.40-194.40L86.40-129.60ZM72.23-302.40L273.38-302.40Q284.85-302.40 293.63-293.63Q302.40-284.85 302.40-273.38L302.40-273.38L302.40-72.23Q302.40-60.75 293.63-51.98Q284.85-43.20 273.38-43.20L273.38-43.20L72.23-43.20Q60.75-43.20 51.98-51.98Q43.20-60.75 43.20-72.23L43.20-72.23L43.20-273.38Q43.20-284.85 51.98-293.63Q60.75-302.40 72.23-302.40L72.23-302.40ZM143.78-151.20L143.78-194.40L165.38-194.40L165.38-151.20L143.78-151.20Z" fill="black" transform="translate(0, 326.4)"/>
          </svg>