
          <svg xmlns="http://www.w3.org/2000/svg" width="40" height="40.00000000000001" viewBox="0 0 1023.7999999999997 1023.7999999999998">
            <path d="M680.27-346.43L680.27-346.43Q670.37-352.73 660.47-357.23Q650.57-361.73 640.67-364.43L640.67-364.43Q635.28-365.33 628.98-365.78Q622.68-366.23 616.38-366.23L616.38-366.23Q610.08-365.33 604.23-364.43Q598.38-363.53 592.98-362.63L592.98-362.63Q588.49-361.73 584.44-359.93Q580.39-358.13 576.79-356.33L576.79-356.33Q564.19-350.93 553.84-344.18Q543.49-337.43 534.50-329.34L534.50-329.34Q526.40-320.34 519.65-309.99Q512.90-299.64 507.50-287.04L507.50-287.04Q505.70-283.44 503.90-279.40Q502.10-275.35 501.20-270.85L501.20-270.85Q500.30-265.45 499.40-259.60Q498.50-253.75 497.60-247.45L497.60-247.45Q497.60-241.15 498.05-234.85Q498.50-228.56 499.40-223.16L499.40-223.16Q502.10-213.26 506.60-203.36Q511.10-193.46 517.40-183.56L517.40-183.56Q520.10-179.96 522.80-176.82Q525.50-173.67 529.10-170.07L529.10-170.07Q542.59-156.57 559.69-149.37Q576.79-142.17 596.58-139.47L596.58-139.47Q602.88-139.47 608.73-138.57Q614.58-137.67 620.88-135.87L620.88-135.87Q624.48-134.97 627.18-133.17Q629.88-131.37 631.68-129.57L631.68-129.57Q636.18-125.08 636.63-118.78Q637.08-112.48 633.48-105.28L633.48-105.28Q631.68-99.88 628.53-95.83Q625.38-91.78 621.78-88.18L621.78-88.18L619.08-85.48Q617.28-82.78 615.48-80.98Q613.68-79.18 612.78-79.18L612.78-79.18Q610.98-76.49 609.18-74.69Q607.38-72.89 604.68-71.09L604.68-71.09L601.98-68.39Q595.68-61.19 588.49-53.99Q581.29-46.79 574.09-39.59L574.09-39.59Q558.79-24.30 543.04-9.00Q527.30 6.30 512.00 21.60L512.00 21.60Q507.50 26.99 502.55 31.94Q497.60 36.89 492.20 42.29L492.20 42.29Q489.50 44.09 487.25 46.34Q485.01 48.59 482.31 50.39L482.31 50.39Q481.41 50.39 480.06 51.29Q478.71 52.19 477.81 53.09L477.81 53.09Q464.31 59.39 450.36 56.69Q436.41 53.99 424.72 42.29L424.72 42.29Q421.12 38.69 417.52 35.09Q413.92 31.49 410.32 27.89L410.32 27.89Q389.62 7.20 369.38-13.05Q349.13-33.29 328.44-53.99L328.44-53.99Q323.04-59.39 317.19-65.24Q311.34-71.09 305.04-76.49L305.04-76.49Q301.44-80.98 296.94-84.58Q292.44-88.18 287.94-91.78L287.94-91.78Q284.34-95.38 280.30-97.18Q276.25-98.98 271.75-100.78L271.75-100.78Q257.35-106.18 244.75-102.58Q232.15-98.98 223.16-89.08L223.16-89.08Q220.46-85.48 218.21-81.88Q215.96-78.28 214.16-73.79L214.16-73.79Q212.36-67.49 211.01-60.74Q209.66-53.99 208.76-47.69L208.76-47.69Q206.06-21.60 192.56-2.25Q179.07 17.10 158.37 26.99L158.37 26.99Q153.87 29.69 148.47 31.49Q143.07 33.29 137.67 34.19L137.67 34.19Q132.27 35.09 126.88 35.09Q121.48 35.09 116.08 35.09L116.08 35.09Q98.08 34.19 82.33 26.54Q66.59 18.90 53.99 5.40L53.99 5.40Q53.09 4.50 52.64 4.05Q52.19 3.60 52.19 3.60L52.19 3.60Q38.69-9.00 31.04-24.75Q23.40-40.49 22.50-58.49L22.50-58.49Q22.50-63.89 22.50-69.29Q22.50-74.69 23.40-80.08L23.40-80.08Q24.30-85.48 26.09-90.88Q27.89-96.28 30.59-100.78L30.59-100.78Q40.49-121.48 59.84-134.97Q79.18-148.47 105.28-151.17L105.28-151.17Q111.58-152.07 118.33-153.42Q125.08-154.77 131.37-156.57L131.37-156.57Q135.87-158.37 139.92-160.62Q143.97-162.87 147.57-166.47L147.57-166.47Q157.47-174.57 160.62-187.16Q163.77-199.76 159.27-213.26L159.27-213.26Q157.47-217.76 155.22-222.26Q152.97-226.76 149.37-230.35L149.37-230.35Q145.77-234.85 142.17-239.35Q138.57-243.85 134.07-247.45L134.07-247.45Q128.67-253.75 122.83-259.60Q116.98-265.45 111.58-270.85L111.58-270.85Q93.58-288.84 75.14-307.29Q56.69-325.74 38.69-343.73L38.69-343.73L29.69-352.73Q26.09-356.33 22.50-359.48Q18.90-362.63 16.20-366.23L16.20-366.23Q3.60-378.83 0.90-392.77Q-1.80-406.72 4.50-420.22L4.50-420.22Q5.40-421.12 6.30-422.47Q7.20-423.82 7.20-424.72L7.20-424.72Q9.00-427.42 11.25-429.67Q13.50-431.92 15.30-434.62L15.30-434.62Q20.70-439.11 25.64-444.51Q30.59-449.91 35.99-454.41L35.99-454.41Q51.29-469.71 66.59-485.46Q81.88-501.20 97.18-516.50L97.18-516.50Q104.38-523.70 111.58-530.45Q118.78-537.20 125.98-544.39L125.98-544.39L128.67-547.09Q130.47-549.79 132.27-551.59Q134.07-553.39 136.77-555.19L136.77-555.19Q136.77-556.09 138.57-557.89Q140.37-559.69 143.07-561.49L143.07-561.49L145.77-564.19Q149.37-567.79 153.42-570.94Q157.47-574.09 162.87-575.89L162.87-575.89Q170.07-579.49 176.37-579.04Q182.66-578.59 187.16-574.09L187.16-574.09Q188.96-572.29 190.76-569.14Q192.56-565.99 193.46-563.29L193.46-563.29Q195.26-556.99 196.16-551.14Q197.06-545.29 197.06-538.99L197.06-538.99Q199.76-519.20 206.96-502.10Q214.16-485.01 227.66-471.51L227.66-471.51Q231.25-467.91 234.40-465.21Q237.55-462.51 241.15-459.81L241.15-459.81Q251.05-453.51 260.95-449.01Q270.85-444.51 280.75-441.81L280.75-441.81Q286.14-440.91 292.44-440.46Q298.74-440.01 305.04-440.01L305.04-440.01Q311.34-440.91 317.19-441.81Q323.04-442.71 328.44-443.61L328.44-443.61Q332.93-444.51 336.98-445.86Q341.03-447.21 344.63-449.91L344.63-449.91Q357.23-455.31 367.58-462.06Q377.93-468.81 386.92-476.91L386.92-476.91Q395.02-485.91 401.77-496.25Q408.52-506.60 413.92-519.20L413.92-519.20Q416.62-522.80 417.97-526.85Q419.32-530.90 420.22-535.40L420.22-535.40Q421.12-540.79 422.02-546.64Q422.92-552.49 423.82-558.79L423.82-558.79Q423.82-565.09 423.37-571.39Q422.92-577.69 422.02-583.09L422.02-583.09Q419.32-592.98 414.82-602.88Q410.32-612.78 404.02-622.68L404.02-622.68Q401.32-626.28 398.62-629.43Q395.92-632.58 392.32-636.18L392.32-636.18Q378.83-649.67 361.73-656.87Q344.63-664.07 324.84-666.77L324.84-666.77Q318.54-666.77 312.69-667.67Q306.84-668.57 300.54-670.37L300.54-670.37Q297.84-671.27 294.69-673.07Q291.54-674.87 289.74-676.67L289.74-676.67Q285.24-681.17 284.79-687.47Q284.34-693.76 287.94-700.96L287.94-700.96Q289.74-706.36 292.89-710.41Q296.04-714.46 299.64-718.06L299.64-718.06L302.34-720.76Q304.14-723.46 305.94-725.26Q307.74-727.06 308.64-727.06L308.64-727.06Q310.44-729.76 312.24-731.56Q314.04-733.36 316.74-735.16L316.74-735.16L319.44-737.86Q325.74-745.05 332.93-752.25Q340.13-759.45 347.33-766.65L347.33-766.65Q362.63-781.95 378.38-797.24Q394.12-812.54 409.42-827.84L409.42-827.84Q413.92-833.24 419.32-838.19Q424.72-843.14 429.22-848.53L429.22-848.53Q431.92-850.33 434.17-852.58Q436.41-854.83 439.11-856.63L439.11-856.63Q440.01-856.63 441.36-857.53Q442.71-858.43 443.61-859.33L443.61-859.33Q457.11-865.63 471.06-862.93Q485.01-860.23 496.70-848.53L496.70-848.53Q500.30-844.93 503.90-841.34Q507.50-837.74 511.10-834.14L511.10-834.14Q531.80-813.44 552.04-793.20Q572.29-772.95 592.98-752.25L592.98-752.25Q598.38-746.85 604.23-741.01Q610.08-735.16 616.38-729.76L616.38-729.76Q619.98-725.26 624.48-721.21Q628.98-717.16 633.48-714.46L633.48-714.46Q637.08-710.86 641.12-708.61Q645.17-706.36 649.67-705.46L649.67-705.46Q664.07-700.06 676.67-703.66Q689.27-707.26 698.26-717.16L698.26-717.16Q700.96-720.76 703.21-724.36Q705.46-727.96 707.26-732.46L707.26-732.46Q709.06-738.76 710.41-745.50Q711.76-752.25 712.66-758.55L712.66-758.55Q715.36-784.65 728.86-803.99Q742.35-823.34 763.05-833.24L763.05-833.24Q767.55-835.94 772.95-837.74Q778.35-839.54 783.75-840.44L783.75-840.44Q789.15-841.34 794.54-841.34Q799.94-841.34 805.34-841.34L805.34-841.34Q823.34-840.44 839.09-832.79Q854.83-825.14 867.43-811.64L867.43-811.64Q868.33-810.74 868.78-810.29Q869.23-809.84 869.23-809.84L869.23-809.84Q882.73-797.24 890.38-781.50Q898.02-765.75 898.92-747.75L898.92-747.75Q898.92-742.35 898.92-736.96Q898.92-731.56 898.02-726.16L898.02-726.16Q897.12-720.76 895.33-715.36Q893.53-709.96 890.83-705.46L890.83-705.46Q880.93-684.77 861.58-671.27Q842.24-657.77 816.14-655.07L816.14-655.07Q809.84-654.17 803.09-652.82Q796.34-651.47 790.05-649.67L790.05-649.67Q785.55-647.87 781.50-645.62Q777.45-643.37 773.85-639.78L773.85-639.78Q763.95-631.68 760.80-619.08Q757.65-606.48 762.15-592.98L762.15-592.98Q763.95-588.49 766.20-583.99Q768.45-579.49 772.05-575.89L772.05-575.89Q775.65-571.39 779.25-566.89Q782.85-562.39 787.35-558.79L787.35-558.79Q792.75-552.49 798.59-546.64Q804.44-540.79 809.84-535.40L809.84-535.40Q830.54-514.70 850.78-494.45Q871.03-474.21 891.73-453.51L891.73-453.51Q895.33-449.91 898.92-446.76Q902.52-443.61 905.22-440.01L905.22-440.01Q917.82-427.42 920.52-413.47Q923.22-399.52 916.92-386.02L916.92-386.02Q916.02-385.12 915.57-383.78Q915.12-382.43 914.22-381.53L914.22-381.53Q912.42-378.83 910.17-376.58Q907.92-374.33 906.12-371.63L906.12-371.63Q900.72-367.13 895.78-361.73Q890.83-356.33 885.43-351.83L885.43-351.83Q870.13-336.53 854.83-320.79Q839.54-305.04 824.24-289.74L824.24-289.74Q817.04-282.54 809.84-275.35Q802.64-268.15 795.44-261.85L795.44-261.85L792.75-259.15Q790.95-256.45 789.15-254.65Q787.35-252.85 784.65-251.05L784.65-251.05Q784.65-250.15 782.85-248.35Q781.05-246.55 778.35-244.75L778.35-244.75L775.65-242.05Q772.05-238.45 768.00-235.30Q763.95-232.15 758.55-230.35L758.55-230.35Q751.35-226.76 745.05-227.21Q738.76-227.66 734.26-232.15L734.26-232.15Q732.46-233.95 730.66-236.65Q728.86-239.35 727.96-242.95L727.96-242.95Q726.16-249.25 725.71-255.10Q725.26-260.95 724.36-267.25L724.36-267.25Q721.66-287.04 714.46-304.14Q707.26-321.24 693.76-334.73L693.76-334.73Q690.17-338.33 687.02-341.03Q683.87-343.73 680.27-346.43L680.27-346.43Z" fill="black" transform="translate(0, 870.2299999999998)"/>
          </svg>