
          <svg xmlns="http://www.w3.org/2000/svg" width="40" height="40" viewBox="0 0 768 768">
            <path d="M345.60-561.60L345.60-561.60Q291.60-561.60 245.03-541.35L245.03-541.35Q197.78-521.10 162.34-485.66Q126.90-450.23 106.65-402.98L106.65-402.98Q86.40-356.40 86.40-302.40L86.40-302.40Q86.40-248.40 106.65-201.83L106.65-201.83Q126.90-154.58 162.34-119.14Q197.78-83.70 245.03-63.45L245.03-63.45Q291.60-43.20 345.60-43.20L345.60-43.20Q358.43-43.20 371.25-44.55Q384.08-45.90 396.90-47.93L396.90-47.93Q391.50-50.63 391.16-64.80Q390.83-78.98 396.23-89.10L396.23-89.10Q401.63-100.58 411.08-123.19Q420.53-145.80 403.65-155.25L403.65-155.25Q386.78-165.38 385.09-171.79Q383.40-178.20 373.28-189L373.28-189Q362.48-200.48 363.49-203.85Q364.50-207.23 363.83-209.93L363.83-209.93Q361.80-220.05 369.90-231.86Q378-243.68 378-245.03L378-245.03Q378.68-246.38 378.68-250.76Q378.68-255.15 378.68-257.18L378.68-257.18Q378.68-258.53 373.28-261.90Q367.88-265.28 365.85-265.95L365.85-265.95Q363.83-265.95 362.48-263.93Q361.13-261.90 358.43-261.23L358.43-261.23Q355.73-261.23 347.29-266.29Q338.85-271.35 336.15-273.38L336.15-273.38Q333.45-275.40 331.76-279.11Q330.08-282.83 326.70-286.20L326.70-286.20Q323.33-289.58 321.64-288.90Q319.95-288.23 314.55-290.25L314.55-290.25Q309.15-292.28 294.98-297.68Q280.80-303.08 267.30-308.48L267.30-308.48Q254.48-313.88 251.44-320.63Q248.40-327.38 248.40-332.78L248.40-332.78Q247.73-337.50 241.99-344.59Q236.25-351.68 232.88-357.08L232.88-357.08Q228.83-362.48 227.48-368.21Q226.13-373.95 225.45-372.60L225.45-372.60Q224.10-370.58 228.83-356.74Q233.55-342.90 232.20-342.90L232.20-342.90Q230.85-342.23 228.15-346.95Q225.45-351.68 222.08-356.40L222.08-356.40Q218.03-361.80 220.39-364.84Q222.75-367.88 211.28-391.50L211.28-391.50Q199.13-415.13 207.56-429.64Q216-444.15 216.68-456.30L216.68-456.30Q218.03-468.45 223.43-460.69Q228.83-452.93 224.10-461.03L224.10-461.03Q219.38-469.13 221.40-482.29Q223.43-495.45 219.38-501.53L219.38-501.53Q216-507.60 200.81-500.18Q185.63-492.75 185.63-492.75L185.63-492.75Q186.30-498.83 200.81-507.94Q215.33-517.05 228.83-526.50L228.83-526.50Q241.65-535.95 251.10-531.90Q260.55-527.85 271.35-524.48L271.35-524.48Q282.15-521.10 283.84-521.78Q285.53-522.45 282.15-525.83L282.15-525.83Q278.10-529.88 282.49-531.23Q286.88-532.58 294.98-531.23L294.98-531.23Q303.08-529.88 308.14-523.13Q313.20-516.38 326.03-517.05L326.03-517.05Q338.85-518.40 333.79-515.70Q328.73-513 330.08-509.63L330.08-509.63Q332.10-506.25 328.39-505.24Q324.68-504.23 316.58-498.15L316.58-498.15Q308.48-492.75 315.23-490.05Q321.98-487.35 336.15-476.55L336.15-476.55Q351-465.75 350.33-477.23Q349.65-488.70 348.30-496.80L348.30-496.80Q346.95-504.23 354.71-501.53Q362.48-498.83 362.48-498.83L362.48-498.83Q371.93-492.75 373.28-495.11Q374.63-497.48 381.38-495.45L381.38-495.45Q388.13-493.43 401.29-482.96Q414.45-472.50 414.45-472.50L414.45-472.50Q391.50-460.35 397.91-456.98Q404.33-453.60 408.38-450.23L408.38-450.23Q411.75-447.53 404.66-443.48Q397.58-439.43 397.58-439.43L397.58-439.43Q392.85-444.15 391.16-441.45Q389.48-438.75 386.10-436.73L386.10-436.73Q383.40-435.38 384.75-432Q386.10-428.63 386.10-428.63L386.10-428.63Q370.58-425.93 370.24-414.11Q369.90-402.30 369.90-398.25L369.90-398.25Q370.58-394.20 363.15-388.46Q355.73-382.73 353.03-377.33L353.03-377.33Q350.33-371.25 355.39-362.14Q360.45-353.03 355.73-352.35L355.73-352.35Q351-351 342.23-362.81Q333.45-374.63 307.13-367.20L307.13-367.20Q299.03-365.18 287.55-355.39Q276.08-345.60 285.53-326.70L285.53-326.70Q294.98-308.48 307.80-320.96Q320.63-333.45 326.03-330.75L326.03-330.75Q331.43-328.05 328.05-319.61Q324.68-311.18 325.35-310.50L325.35-310.50Q326.70-310.50 336.15-307.46Q345.60-304.43 346.28-288.23L346.28-288.23Q347.63-272.03 361.80-270.34Q375.98-268.65 380.70-267.98L380.70-267.98Q384.75-267.98 395.55-276.08Q406.35-284.18 408.38-284.85L408.38-284.85Q410.40-285.53 419.51-288.56Q428.63-291.60 446.85-281.48L446.85-281.48Q465.08-270.68 475.20-269.33Q485.33-267.98 492.08-263.25L492.08-263.25Q498.15-259.20 497.14-252.11Q496.13-245.03 502.20-242.33L502.20-242.33Q508.28-239.63 525.83-239.96Q543.38-240.30 549.45-230.85L549.45-230.85Q555.53-220.73 534.60-185.96Q513.68-151.20 504.23-145.80L504.23-145.80Q494.78-140.40 488.70-130.28Q482.63-120.15 473.18-112.05L473.18-112.05Q463.73-103.95 451.24-95.18Q438.75-86.40 425.93-78.98L425.93-78.98Q415.13-72.23 411.08-62.78Q407.03-53.33 402.30-49.28L402.30-49.28Q445.50-58.73 482.63-82.35L482.63-82.35Q519.75-105.98 546.75-139.39Q573.75-172.80 589.28-213.98L589.28-213.98Q604.80-255.83 604.80-302.40L604.80-302.40Q604.80-356.40 584.55-402.98L584.55-402.98Q564.30-450.23 528.86-485.66Q493.43-521.10 446.18-541.35L446.18-541.35Q399.60-561.60 345.60-561.60ZM406.35-318.60L406.35-318.60Q403.65-317.93 397.24-315.56Q390.83-313.20 377.33-321.30L377.33-321.30Q363.83-329.40 355.39-330.08Q346.95-330.75 345.60-331.43L345.60-331.43Q345.60-331.43 345.94-333.79Q346.28-336.15 351.68-336.83L351.68-336.83Q363.83-338.18 376.65-330.08Q389.48-321.98 392.85-321.98L392.85-321.98Q396.23-321.30 398.93-323.33Q401.63-325.35 407.70-323.33L407.70-323.33Q413.78-321.30 411.41-320.29Q409.05-319.28 406.35-318.60ZM321.30-535.95L321.30-535.95Q319.95-536.63 321.64-537.98Q323.33-539.33 324.68-541.35L324.68-541.35Q326.03-542.03 325.69-543.71Q325.35-545.40 326.70-546.08L326.70-546.08Q329.40-549.45 338.85-551.14Q348.30-552.83 345.60-545.40L345.60-545.40Q342.90-537.30 333.11-535.95Q323.33-534.60 321.30-535.95ZM366.53-502.88L366.53-502.88Q361.80-502.88 354.04-504.23Q346.28-505.58 348.30-507.60L348.30-507.60Q356.40-515.70 349.31-518.40Q342.23-521.10 335.48-521.78L335.48-521.78Q328.73-522.45 326.03-525.15Q323.33-527.85 326.70-527.85L326.70-527.85Q330.08-528.53 340.20-527.85Q350.33-527.18 352.35-525.15L352.35-525.15Q355.05-523.80 363.83-519.41Q372.60-515.02 373.28-511.65L373.28-511.65Q373.95-507.60 372.94-505.24Q371.93-502.88 366.53-502.88ZM421.88-504.90L421.88-504.90Q417.83-501.53 403.99-510.98Q390.15-520.43 386.10-523.13L386.10-523.13Q370.58-537.30 361.46-536.96Q352.35-536.63 348.98-538.65L348.98-538.65Q345.60-540.68 346.95-544.05Q348.30-547.43 353.03-551.48L353.03-551.48Q358.43-556.20 370.24-552.83Q382.05-549.45 390.15-548.78L390.15-548.78Q398.93-547.43 406.69-541.69Q414.45-535.95 414.45-528.53L414.45-528.53Q415.13-520.43 420.19-514.01Q425.25-507.60 421.88-504.90Z" fill="black" transform="translate(0, 652.8)"/>
          </svg>