
          <svg xmlns="http://www.w3.org/2000/svg" width="40" height="31.11111111111111" viewBox="0 0 576 448">
            <path d="M0-289.80L0-289.80L0-252Q0-240.97 7.09-233.89L7.09-233.89Q14.17-226.80 25.20-226.80L25.20-226.80L37.80-226.80L75.60-226.80L75.60-289.80Q74.81-305.55 64.58-316.57L64.58-316.57Q53.55-326.81 37.80-327.60L37.80-327.60Q22.05-326.81 11.03-316.57L11.03-316.57Q0.79-305.55 0-289.80L0-289.80ZM88.20-327.60L88.20-327.60Q100.80-311.06 100.80-289.80L100.80-289.80L100.80-50.40Q101.59-29.14 115.76-14.96L115.76-14.96Q129.94-0.79 151.20 0L151.20 0Q172.46-0.79 186.64-14.96L186.64-14.96Q200.81-29.14 201.60-50.40L201.60-50.40L201.60-54.34Q202.39-74.02 214.99-87.41L214.99-87.41Q228.38-100.01 248.06-100.80L248.06-100.80L378-100.80L378-252Q377.21-284.29 355.95-305.55L355.95-305.55Q334.69-326.81 302.40-327.60L302.40-327.60L88.20-327.60ZM365.40 25.20L365.40 25.20Q403.20 24.41 427.61-0.79L427.61-0.79L427.61-0.79Q452.81-25.20 453.60-63L453.60-63Q452.81-74.81 441-75.60L441-75.60L248.06-75.60Q228.38-74.02 226.80-54.34L226.80-54.34L226.80-50.40Q226.01-18.11 204.75 3.15L204.75 3.15Q183.49 24.41 151.20 25.20L151.20 25.20L289.80 25.20L365.40 25.20Z" fill="black" transform="translate(0, 380.8)"/>
          </svg>