
          <svg xmlns="http://www.w3.org/2000/svg" width="40" height="25" viewBox="0 0 1024 640">
            <path d="M534.38-432L534.38-432L41.63-432Q24.19-432 12.09-419.91Q0-407.81 0-390.38L0-390.38L0-113.63Q0-96.19 12.09-84.09Q24.19-72 41.63-72L41.63-72L534.38-72Q551.81-72 563.91-84.09Q576-96.19 576-113.63L576-113.63L576-390.38Q576-407.81 563.91-419.91Q551.81-432 534.38-432ZM324-360L324-144L252-144L252-252L198-182.81L144-252L144-144L72-144L72-360L144-360L198-288L252-360L324-360ZM522-252L431.44-126L342-252L396-252L396-360L468-360L468-252L522-252Z" fill="black" transform="translate(0, 544)"/>
          </svg>