
          <svg xmlns="http://www.w3.org/2000/svg" width="40" height="46.666666666666664" viewBox="0 0 768 896">
            <path d="M604.80-554.40L453.60-705.60L0-705.60L0 0L604.80 0L604.80-554.40ZM50.40-182.70L50.40-655.20L252-655.20Q244.13-652.84 236.64-645.36Q229.16-637.88 224.44-621.34L224.44-621.34Q216.56-592.20 220.11-547.71Q223.65-503.21 237.04-456.75L237.04-456.75Q229.95-432.34 213.41-395.32L213.41-395.32Q197.66-358.31 180.73-322.48Q163.80-286.65 150.41-259.88L150.41-259.88Q137.03-233.10 135.45-229.95L135.45-229.95Q126-226.80 100.80-215.38Q75.60-203.96 50.40-182.70L50.40-182.70ZM273.26-413.44L273.26-413.44Q307.13-324.45 331.54-307.91Q355.95-291.38 379.57-281.14L379.57-281.14Q329.96-273.26 288.22-264.60Q246.49-255.94 196.88-234.67L196.88-234.67Q195.30-232.31 205.54-251.21L205.54-251.21Q214.99-270.11 227.98-298.07Q240.97-326.02 254.36-357.52L254.36-357.52Q266.96-389.02 273.26-413.44ZM554.40-206.32L554.40-50.40L50.40-50.40Q51.19-50.40 51.19-50.40Q51.19-50.40 51.98-50.40L51.98-50.40Q71.66-50.40 104.74-74.42Q137.81-98.44 193.72-193.72L193.72-193.72Q216.56-203.17 234.28-209.47Q252-215.78 255.94-216.56L255.94-216.56Q290.59-225.22 328.78-232.31Q366.97-239.40 403.20-243.34L403.20-243.34Q435.49-226.80 473.29-216.56Q511.09-206.32 535.50-204.75L535.50-204.75Q541.01-204.75 545.34-205.54Q549.67-206.32 554.40-206.32L554.40-206.32ZM554.40-504L554.40-295.31Q540.23-303.97 522.51-309.49Q504.79-315 484.31-315L484.31-315Q470.14-315 454.39-314.21Q438.64-313.43 422.10-311.06L422.10-311.06Q406.35-318.94 372.49-343.35Q338.63-367.76 306.34-460.69L306.34-460.69Q316.57-522.11 316.57-559.91Q316.57-597.71 316.57-597.71L316.57-597.71Q320.51-629.21 306.34-642.21Q292.16-655.20 275.63-655.20L275.63-655.20Q275.63-655.20 275.63-655.20Q275.63-655.20 275.63-655.20L275.63-655.20L403.20-655.20L554.40-504Z" fill="black" transform="translate(0, 761.6)"/>
          </svg>