
          <svg xmlns="http://www.w3.org/2000/svg" width="40" height="35.55555555555556" viewBox="0 0 1008 896">
            <path d="M604.80-705.60L604.80-705.60Q563.06-705.60 526.05-693.79L526.05-693.79Q489.82-682.76 462.26-662.68Q434.70-642.60 418.95-615.82L418.95-615.82Q403.20-589.05 403.20-558.34L403.20-558.34Q403.20-485.10 412.65-426.04Q422.10-366.97 403.20-252L403.20-252Q403.20-337.05 380.36-397.69L380.36-397.69Q357.52-458.32 325.63-496.91Q293.74-535.50 259.09-553.61L259.09-553.61Q225.22-571.73 201.60-571.73L201.60-571.73Q203.17-590.63 190.18-597.71Q177.19-604.80 177.19-604.80L177.19-604.80Q177.19-604.80 171.28-600.47Q165.38-596.14 162.22-587.48L162.22-587.48Q151.99-599.29 142.93-600.47Q133.88-601.65 133.88-601.65L133.88-601.65L126.79-572.51Q126.79-572.51 80.72-540.23Q34.65-507.94 33.07-410.29L33.07-410.29Q41.74-396.90 82.29-389.42Q122.85-381.94 159.07-388.24L159.07-388.24Q192.94-386.66 191.76-366.19Q190.57-345.71 182.70-337.84L182.70-337.84Q151.20-306.34 119.70-329.57Q88.20-352.80 50.40-352.80L50.40-352.80Q12.60-352.80 12.60-327.60Q12.60-302.40 50.40-302.40L50.40-302.40Q88.20-302.40 107.10-277.20Q126-252 201.60-252L201.60-252Q143.32-229.16 135.45-195.30L135.45-195.30Q128.36-160.65 142.93-128.36Q157.50-96.08 179.55-73.24L179.55-73.24Q201.60-50.40 201.60-50.40L201.60-50.40L151.20-50.40Q113.40-50.40 107.10-25.20Q100.80 0 100.80 0L100.80 0Q100.80 0 133.88 0L133.88 0Q166.95 0 214.20 0Q261.45 0 313.43 0L313.43 0Q365.40 0 403.20 0L403.20 0Q459.90 0 506.36-9.45L506.36-9.45Q552.82-19.69 585.90-40.95Q618.98-62.21 637.09-95.29L637.09-95.29Q655.20-128.36 655.20-174.82L655.20-174.82Q655.20-207.11 640.63-240.97Q626.06-274.84 604.80-302.40L604.80-302.40Q563.06-357.52 594.56-393.36Q626.06-429.19 655.20-403.20L655.20-403.20Q684.34-377.21 745.37-383.91Q806.40-390.60 806.40-504L806.40-504Q806.40-545.74 790.65-582.75L790.65-582.75Q774.90-618.98 747.34-646.54Q719.77-674.10 683.55-689.85L683.55-689.85Q646.54-705.60 604.80-705.60L604.80-705.60ZM126-453.60L126-453.60Q115.76-453.60 108.28-461.08Q100.80-468.56 100.80-478.80L100.80-478.80Q100.80-489.04 108.28-496.52Q115.76-504 126-504L126-504Q136.24-504 143.72-496.52Q151.20-489.04 151.20-478.80L151.20-478.80Q151.20-468.56 143.72-461.08Q136.24-453.60 126-453.60Z" fill="black" transform="translate(0, 761.6)"/>
          </svg>