
          <svg xmlns="http://www.w3.org/2000/svg" width="40" height="24" viewBox="0 0 640 384">
            <path d="M0-216L0-216Q0.68-234.23 12.83-246.38L12.83-246.38L12.83-246.38Q24.98-258.53 43.20-259.20L43.20-259.20L172.80-259.20L205.20-259.20L216-259.20L388.80-259.20Q407.03-258.53 419.18-246.38L419.18-246.38Q431.33-234.23 432-216L432-216L432-43.20Q431.33-24.98 419.18-12.83L419.18-12.83Q407.03-0.68 388.80 0L388.80 0L216 0L205.20 0L172.80 0L43.20 0Q24.98-0.68 12.83-12.83L12.83-12.83Q0.68-24.98 0-43.20L0-43.20L0-216ZM216-216L216-216L216-43.20L388.80-43.20L388.80-216L216-216ZM120.15-183.60L120.15-183.60Q116.78-191.03 108-191.70L108-191.70Q99.23-191.03 95.85-183.60L95.85-183.60L52.65-86.40Q48.60-74.93 59.40-68.85L59.40-68.85Q70.88-64.80 76.95-75.60L76.95-75.60L83.03-89.10L132.98-89.10L139.05-75.60Q145.13-64.80 156.60-68.85L156.60-68.85Q167.40-74.93 163.35-86.40L163.35-86.40L120.15-183.60ZM108-145.13L108-145.13L120.83-116.10L95.18-116.10L108-145.13ZM302.40-191.70L302.40-191.70Q314.55-190.35 315.90-178.20L315.90-178.20L315.90-175.50L345.60-175.50L356.40-175.50Q368.55-174.15 369.90-162L369.90-162Q368.55-149.85 356.40-148.50L356.40-148.50L355.05-148.50L353.70-145.13Q344.93-120.83 327.38-101.25L327.38-101.25Q328.05-100.58 329.40-99.90L329.40-99.90L341.55-92.48Q351.68-85.05 346.28-74.25L346.28-74.25Q338.85-64.13 328.05-69.53L328.05-69.53L315.23-76.95Q310.50-79.65 306.45-83.03L306.45-83.03Q295.65-74.93 283.50-69.53L283.50-69.53L280.80-68.85Q269.33-64.80 263.25-75.60L263.25-75.60Q259.20-87.08 270-93.15L270-93.15L272.70-94.50Q278.78-97.20 284.85-101.25L284.85-101.25L276.75-109.35Q268.65-118.80 276.75-128.25L276.75-128.25Q286.20-136.35 295.65-128.25L295.65-128.25L305.78-118.80L305.78-118.13Q318.60-131.63 326.03-148.50L326.03-148.50L302.40-148.50L253.80-148.50Q241.65-149.85 240.30-162L240.30-162Q241.65-174.15 253.80-175.50L253.80-175.50L288.90-175.50L288.90-178.20Q290.25-190.35 302.40-191.70L302.40-191.70Z" fill="black" transform="translate(0, 326.4)"/>
          </svg>