
          <svg xmlns="http://www.w3.org/2000/svg" width="40" height="34.285714285714285" viewBox="0 0 896 768">
            <path d="M560.93-562.28L560.93-562.28L42.53-562.28Q24.30-562.28 11.81-549.79Q-0.68-537.30-0.68-519.08L-0.68-519.08L-0.68-87.08Q-0.68-68.85 11.81-56.36Q24.30-43.88 42.53-43.88L42.53-43.88L560.93-43.88Q579.15-43.88 591.64-56.36Q604.13-68.85 604.13-87.08L604.13-87.08L604.13-519.08Q604.13-537.30 591.64-549.79Q579.15-562.28 560.93-562.28ZM128.93-216.68L85.73-259.88L172.13-346.28L85.73-432.68L128.93-475.88L258.53-346.28L128.93-216.68ZM431.33-259.88L431.33-216.68L258.53-216.68L258.53-259.88L431.33-259.88Z" fill="black" transform="translate(0, 652.8)"/>
          </svg>