
          <svg xmlns="http://www.w3.org/2000/svg" width="40" height="40" viewBox="0 0 1024 1024">
            <path d="M645.30-752.40L645.30-752.40Q596.70-724.50 546.30-687.15Q495.90-649.80 448.20-602.10L448.20-602.10Q418.50-572.40 393.75-542.70Q369-513 349.20-486L349.20-486L189-456.30L0-267.30L168.30-261.90L286.20-380.70Q255.60-315.90 248.40-276.30Q241.20-236.70 241.20-236.70L241.20-236.70L294.30-183.60Q294.30-183.60 334.80-191.70Q375.30-199.80 440.10-231.30L440.10-231.30L319.50-110.70L324.90 57.60L513.90-131.40L543.60-292.50Q571.50-312.30 600.75-336.60Q630-360.90 659.70-390.60L659.70-390.60Q707.40-438.30 744.75-488.70Q782.10-539.10 810-587.70L810-587.70Q778.50-594 750.60-607.50Q722.70-621 701.10-642.60L701.10-642.60Q678.60-665.10 665.10-693Q651.60-720.90 645.30-752.40L645.30-752.40ZM707.40-785.70L707.40-785.70Q711-755.10 720.90-731.25Q730.80-707.40 747.90-690.30L747.90-690.30Q765-673.20 788.85-663.30Q812.70-653.40 843.30-649.80L843.30-649.80Q888.30-739.80 904.95-801.90Q921.60-864 921.60-864L921.60-864Q921.60-864 859.50-847.35Q797.40-830.70 707.40-785.70Z" fill="black" transform="translate(0, 870.4)"/>
          </svg>