<svg xmlns="http://www.w3.org/2000/svg"  viewBox="0 0 48 48" width="48px" height="48px" fill-rule="evenodd" clip-rule="evenodd"><circle cx="24" cy="24" r="20" fill="#f64942" fill-rule="evenodd" clip-rule="evenodd"/><path d="M40.401,12.573c-4.675,2.808-11.179,10.117-18.812,21.143l-5.793,8.426l-0.044,0.064	C18.269,43.348,21.056,44,24,44c11.046,0,20-8.954,20-20C44,19.748,42.663,15.813,40.401,12.573z" opacity=".07"/><path d="M40.101,12.171c-4.797,2.9-11.163,10.05-18.923,21.259l-5.794,8.427l-0.088,0.127	C17.931,43.263,20.876,44,24,44c11.046,0,20-8.954,20-20C44,19.568,42.541,15.487,40.101,12.171z" opacity=".05"/><path d="M24,4C12.954,4,4,12.954,4,24c0,0.34,0.034,0.672,0.051,1.008l0.813-1.195	c1.927-2.83,6.343-7.578,14.257-7.578c1.789,0,3.685,0.247,5.636,0.735l0.273,0.068l0.268-0.084	c0.371-0.116,9.086-2.884,12.58-7.336C34.281,6.146,29.395,4,24,4z" opacity=".05"/><path d="M24,4C12.954,4,4,12.954,4,24c0,0.061,0.009,0.12,0.009,0.181l0.442-0.649	c1.983-2.912,6.526-7.797,14.671-7.797c1.83,0,3.767,0.252,5.757,0.75l0.136,0.034l0.134-0.042	c0.366-0.114,8.977-2.847,12.359-7.195C33.948,6.012,29.215,4,24,4z" opacity=".07"/><path fill="#f4ce45" d="M40.685,12.984C37.235,15.047,31.389,20.439,22,34l-5.792,8.425C18.603,43.439,21.236,44,24,44	c11.046,0,20-8.954,20-20C44,19.927,42.776,16.144,40.685,12.984z"/><path d="M43.316,28.39c-3.346,0.391-6.043,1.875-6.506,2.142l-7.799,1.95	c-4.487-1.308-8.76-1.972-12.699-1.972c-4.937,0-8.386,1.038-10.41,1.909l-0.02,0.008C9.064,39.256,15.97,44,24,44	c9.544,0,17.513-6.69,19.507-15.632L43.316,28.39z" opacity=".07"/><path d="M43.258,27.893c-3.307,0.386-6.005,1.814-6.636,2.17l-7.602,1.9	c-4.485-1.297-8.76-1.954-12.709-1.954c-5.022,0-8.54,1.06-10.608,1.95l-0.039,0.017C8.746,39.05,15.792,44,24,44	c9.727,0,17.825-6.947,19.621-16.149L43.258,27.893z" opacity=".05"/><path fill="#5b95bf" d="M24,4C13.207,4,4.435,12.555,4.038,23.251C6.353,19.851,12.737,12.934,25,16	c0,0,8.831-2.763,12.139-7.054C33.623,5.875,29.035,4,24,4z"/><path fill="#ef90a4" d="M6.099,32.879C9.371,39.464,16.148,44,24,44c9.357,0,17.19-6.434,19.374-15.113	C39.837,29.299,37,31,37,31l-8,2C16.99,29.468,9.477,31.425,6.099,32.879z"/><path fill="#2f2f2f" d="M24.152,8.572c-0.695,0-1.36,0.217-1.912,0.6c-0.383-0.149-0.796-0.228-1.221-0.228 c-0.293,0-0.585,0.039-0.87,0.115c-0.672,0.18-1.259,0.563-1.693,1.076c-0.123-0.014-0.247-0.021-0.371-0.021 c-0.587,0-1.166,0.155-1.676,0.449c-0.602,0.347-1.069,0.868-1.356,1.476c-0.704,0.106-1.354,0.432-1.866,0.944 c-0.492,0.492-0.809,1.117-0.928,1.779c-0.644,0.283-1.196,0.766-1.558,1.392c-0.348,0.602-0.492,1.287-0.436,1.956 c-0.547,0.438-0.955,1.044-1.144,1.749c-0.18,0.671-0.142,1.37,0.086,2.003c-0.415,0.564-0.652,1.256-0.652,1.985 c0,0.695,0.218,1.36,0.602,1.912c-0.255,0.652-0.304,1.381-0.115,2.086c0.18,0.671,0.563,1.257,1.077,1.691 c-0.077,0.696,0.064,1.413,0.429,2.045c0.347,0.6,0.868,1.069,1.478,1.356c0.106,0.692,0.428,1.348,0.944,1.864 c0.492,0.491,1.109,0.811,1.78,0.93c0.282,0.64,0.762,1.189,1.394,1.553c0.51,0.294,1.089,0.45,1.676,0.45 c0.095,0,0.19-0.004,0.284-0.012c0.438,0.545,1.045,0.952,1.749,1.14c0.284,0.076,0.577,0.115,0.87,0.115 c0.393,0,0.778-0.068,1.138-0.198c0.564,0.413,1.255,0.649,1.984,0.649c0.695,0,1.36-0.217,1.912-0.6 c0.383,0.149,0.796,0.228,1.221,0.228c0.293,0,0.585-0.038,0.87-0.115c0.672-0.18,1.259-0.563,1.693-1.076 c0.123,0.014,0.247,0.021,0.371,0.021c0.587,0,1.166-0.155,1.676-0.449c0.602-0.347,1.069-0.868,1.356-1.476 c0.704-0.106,1.354-0.432,1.866-0.944c0.492-0.492,0.809-1.117,0.928-1.779c0.644-0.283,1.196-0.766,1.558-1.392 c0.348-0.602,0.492-1.287,0.436-1.956c0.547-0.438,0.955-1.044,1.144-1.749c0.18-0.671,0.142-1.37-0.086-2.003 c0.415-0.564,0.652-1.256,0.652-1.985c0-0.695-0.218-1.36-0.602-1.912c0.255-0.652,0.304-1.382,0.115-2.087 c-0.18-0.671-0.563-1.257-1.077-1.691c0.077-0.696-0.064-1.413-0.429-2.045c-0.347-0.6-0.868-1.069-1.478-1.356 c-0.106-0.692-0.428-1.348-0.944-1.863c-0.492-0.491-1.109-0.811-1.78-0.93c-0.282-0.64-0.762-1.189-1.394-1.553 c-0.51-0.294-1.089-0.449-1.676-0.449c-0.095,0-0.19,0.004-0.285,0.012c-0.438-0.545-1.045-0.952-1.749-1.14 c-0.284-0.076-0.577-0.115-0.87-0.115c-0.393,0-0.778,0.068-1.139,0.198C25.572,8.808,24.881,8.572,24.152,8.572"/><path fill="#fff" d="M24.051,10.065c0.701,0,1.302,0.422,1.566,1.025c0.026,0.06,0.085,0.093,0.144,0.093 c0.042,0,0.084-0.017,0.114-0.053c0.321-0.384,0.801-0.613,1.31-0.613c0.146,0,0.295,0.019,0.443,0.059 c0.678,0.182,1.15,0.746,1.248,1.399c0.012,0.078,0.081,0.129,0.153,0.129c0.029,0,0.059-0.009,0.086-0.027 c0.289-0.202,0.634-0.311,0.985-0.311c0.289,0,0.583,0.074,0.852,0.229c0.608,0.351,0.918,1.018,0.843,1.674 c-0.011,0.093,0.067,0.169,0.154,0.169c0.017,0,0.034-0.003,0.051-0.009c0.189-0.069,0.389-0.104,0.588-0.104 c0.437,0,0.874,0.166,1.207,0.5c0.497,0.496,0.623,1.221,0.381,1.835c-0.039,0.099,0.038,0.208,0.143,0.208 c0.005,0,0.009,0,0.013-0.001c0.05-0.004,0.1-0.007,0.15-0.007c0.591,0,1.165,0.305,1.482,0.853 c0.351,0.608,0.285,1.34-0.108,1.87c-0.066,0.089-0.012,0.222,0.097,0.241c0.635,0.111,1.179,0.577,1.357,1.24 c0.182,0.678-0.072,1.369-0.588,1.779c-0.087,0.069-0.07,0.211,0.031,0.258c0.584,0.272,0.989,0.862,0.989,1.548 c0,0.701-0.422,1.301-1.026,1.565c-0.103,0.045-0.127,0.186-0.04,0.258c0.494,0.414,0.733,1.089,0.555,1.752 c-0.182,0.678-0.747,1.149-1.4,1.247c-0.11,0.016-0.166,0.148-0.102,0.239c0.37,0.527,0.425,1.241,0.082,1.835 c-0.317,0.548-0.891,0.853-1.482,0.853c-0.064,0-0.129-0.004-0.194-0.011c-0.006-0.001-0.011-0.001-0.017-0.001 c-0.102,0-0.18,0.106-0.143,0.206c0.221,0.605,0.089,1.309-0.396,1.794c-0.333,0.333-0.77,0.5-1.207,0.5 c-0.214,0-0.427-0.04-0.629-0.119c-0.018-0.007-0.036-0.01-0.054-0.01c-0.085,0-0.162,0.075-0.154,0.166 c0.057,0.641-0.253,1.287-0.848,1.63c-0.269,0.155-0.562,0.229-0.852,0.229c-0.365,0-0.724-0.117-1.02-0.336 c-0.027-0.02-0.058-0.029-0.088-0.029c-0.071,0-0.14,0.049-0.153,0.126c-0.112,0.634-0.577,1.178-1.241,1.355 c-0.148,0.04-0.297,0.059-0.443,0.059c-0.524,0-1.016-0.243-1.338-0.646c-0.03-0.038-0.074-0.056-0.118-0.056 c-0.057,0-0.114,0.03-0.14,0.087c-0.272,0.584-0.863,0.988-1.55,0.988c-0.701,0-1.302-0.422-1.566-1.025 c-0.026-0.06-0.085-0.093-0.144-0.093c-0.042,0-0.084,0.017-0.114,0.053c-0.321,0.384-0.801,0.613-1.31,0.613 c-0.146,0-0.295-0.019-0.443-0.059c-0.678-0.182-1.15-0.746-1.248-1.399c-0.012-0.078-0.081-0.129-0.153-0.129 c-0.029,0-0.059,0.009-0.086,0.027c-0.289,0.202-0.634,0.311-0.985,0.311c-0.289,0-0.583-0.074-0.852-0.229 c-0.608-0.351-0.918-1.018-0.843-1.674c0.011-0.093-0.067-0.169-0.154-0.169c-0.017,0-0.034,0.003-0.051,0.009 c-0.189,0.069-0.389,0.104-0.588,0.104c-0.437,0-0.874-0.166-1.207-0.499c-0.497-0.496-0.623-1.221-0.381-1.835 c0.039-0.099-0.038-0.208-0.143-0.208c-0.005,0-0.009,0-0.013,0.001c-0.05,0.004-0.1,0.007-0.15,0.007 c-0.591,0-1.165-0.305-1.482-0.853c-0.351-0.608-0.285-1.34,0.108-1.87c0.066-0.089,0.012-0.222-0.097-0.241 c-0.635-0.111-1.179-0.577-1.357-1.24c-0.182-0.678,0.072-1.369,0.588-1.779c0.087-0.069,0.07-0.211-0.031-0.258 c-0.584-0.272-0.989-0.862-0.989-1.549c0-0.7,0.422-1.301,1.026-1.565c0.103-0.045,0.127-0.186,0.04-0.258 c-0.494-0.414-0.733-1.089-0.555-1.752c0.182-0.678,0.747-1.149,1.4-1.247c0.11-0.016,0.166-0.148,0.102-0.239 c-0.37-0.527-0.425-1.241-0.082-1.835c0.317-0.548,0.891-0.853,1.482-0.853c0.064,0,0.129,0.004,0.194,0.011 c0.006,0.001,0.011,0.001,0.017,0.001c0.102,0,0.179-0.106,0.143-0.205c-0.221-0.605-0.089-1.309,0.396-1.794 c0.334-0.333,0.77-0.499,1.207-0.499c0.214,0,0.427,0.04,0.629,0.119c0.018,0.007,0.036,0.01,0.054,0.01 c0.085,0,0.162-0.075,0.154-0.166c-0.057-0.641,0.253-1.287,0.848-1.63c0.269-0.155,0.562-0.229,0.852-0.229 c0.365,0,0.725,0.117,1.02,0.336c0.027,0.02,0.058,0.029,0.088,0.029c0.071,0,0.14-0.049,0.153-0.126 c0.112-0.634,0.577-1.178,1.241-1.355c0.148-0.04,0.297-0.059,0.443-0.059c0.524,0,1.016,0.243,1.338,0.646 c0.03,0.038,0.074,0.056,0.118,0.056c0.057,0,0.114-0.031,0.14-0.087C22.773,10.469,23.364,10.065,24.051,10.065"/><path fill="#2f2f2f" d="M30.451,30.796c-1.561,0-1.439-2.202,0-2.202C31.889,28.594,32.012,30.796,30.451,30.796 M17.549,30.796c-1.561,0-1.439-2.202,0-2.202C18.988,28.594,19.111,30.796,17.549,30.796 M35.168,22.66h-0.529 c-0.949,0-1.763-0.566-2.128-1.378c-0.365,0.812-1.179,1.378-2.128,1.378c-0.949,0-1.763-0.566-2.128-1.378 c-0.365,0.812-1.179,1.378-2.128,1.378c-0.948,0-1.763-0.566-2.128-1.378c-0.365,0.812-1.179,1.378-2.128,1.378 c-0.949,0-1.763-0.566-2.128-1.378c-0.365,0.812-1.179,1.378-2.128,1.378s-1.763-0.566-2.128-1.378 c-0.365,0.812-1.179,1.378-2.128,1.378h-0.523c-0.793,0.853-0.29,1.573,1.669,1.573v4.379c0,4.116,4.744,6.173,9.487,6.173 s9.487-2.058,9.487-6.173v-4.379C35.443,24.233,35.955,23.513,35.168,22.66"/></svg>