<svg xmlns="http://www.w3.org/2000/svg"  viewBox="0 0 48 48" width="48px" height="48px"><path fill="#00cdfa" d="M11.251,31.048h-6v-6h6V31.048z"/><path fill="#00cdfa" d="M25.166,41.847c-0.062,0-0.122,0-0.183-0.001c-3.63-0.047-8.894-1.332-13.358-7.191 c-0.283-0.373-0.271-0.892,0.03-1.25s0.81-0.458,1.227-0.244c0.08,0.043,8.123,4.15,13.008,1.113 c2.701-1.676,4.018-5.311,3.914-10.803c-0.01-0.514,0.373-0.952,0.884-1.012c0.131-0.012,2.631-0.272,5.312,1.854 c-0.423-1.154-1.352-2.518-3.329-3.672c-3.147-1.836-7.083-1.928-10.27-0.244c-1.497,0.792-2.947,1.897-4.31,3.288 c-0.496,0.506-1.186,0.784-1.894,0.77c-0.697-0.018-1.361-0.328-1.822-0.851c-0.768-0.871-0.846-2.147-0.19-3.104l0.502-0.733 c-1.37-1.512-2.631-4.458-0.368-8.078c3.107-4.973,10.857-6.997,16.508-4.399c2.882-1.168,8.438-1.75,11.562,3.526 c0.152,0.258,0.182,0.57,0.079,0.852c-0.102,0.281-0.324,0.502-0.606,0.602l-3.039,1.072c1.527,2.152,4.438,7.1,3.851,12.892 c-0.464,4.565-3,8.636-7.539,12.097C32.151,40.602,28.618,41.847,25.166,41.847z"/></svg>