<svg id="ThePornDude_-_Favicon" data-name="ThePornDude - Favicon" xmlns="http://www.w3.org/2000/svg" xmlns:xlink="http://www.w3.org/1999/xlink" viewBox="0 0 538.32 538.32"><defs><radialGradient id="radial-gradient" cx="18.4" cy="-53.39" r="0.45" gradientTransform="translate(-3993.63 12173.4) scale(225.79)" gradientUnits="userSpaceOnUse"><stop offset="0" stop-color="#fde049"/><stop offset="1" stop-color="#ff9701"/></radialGradient></defs><g id="Circle"><path d="M288.28,18.54c148.64,0,269.15,120.51,269.15,269.16S436.92,556.86,288.28,556.86,19.12,436.35,19.12,287.7,139.63,18.54,288.28,18.54Z" transform="translate(-19.12 -18.54)" style="fill:#b85a1b"/><path d="M288.28,32.69c140.84,0,255,114.17,255,255s-114.17,255-255,255-255-114.17-255-255S147.44,32.69,288.28,32.69Z" transform="translate(-19.12 -18.54)" style="fill:url(#radial-gradient)"/><path d="M288.28,65.54c122.62,0,222.15,99.53,222.15,222.16S410.91,509.86,288.28,509.86,66.12,410.33,66.12,287.7,165.65,65.54,288.28,65.54Z" transform="translate(-19.12 -18.54)" style="fill:#fff"/></g><g id="Favicon"><path d="M154.92,426.92c-11.72-36.6-26.68-86.36-26.68-124.75,0-151.08,319.9-157.91,319.9,0,0,38.39-15,88.15-26.67,124.75l-2.92,4.55c-68.15,60.33-192.24,60.33-260.38,0l-2.93-4.55Z" transform="translate(-19.12 -18.54)" style="fill:#9a4c18"/><path d="M167.76,421.55c-10.57-32.85-25.69-82.3-25.69-118.72,0-134,291.93-140.68,291.93,0,0,36.42-15.13,85.87-25.7,118.72-62.61,55.45-178.08,55.45-240.7,0Z" transform="translate(-19.12 -18.54)" style="fill:#e5895b"/><path d="M143.37,288.84c19-115.63,270.62-121,289.65-.49-.33,12.2-2.28,25.7-4.88,39.36-37.89-.17-80.5,2.44-118.4,6.5-5.85.65-8.13,6.35-20.65,6.35s-16.59-5.7-22.28-6.35c-37.9-4.06-80.51-6.67-118.4-6.5-2.6-13.5-4.56-26.84-4.88-38.87ZM379,422.85c-54,28.95-127.67,28.95-181.51,0,13.34,1.63,25.7,2.6,34.81,2.76,11.71.17,28.78-1.79,34.64-12.52,17.89-32.69,25.21-31.88,42.77,0,5.86,10.73,22.93,12.52,34.65,12.52,9.1-.16,21.46-1.13,34.8-2.76Z" transform="translate(-19.12 -18.54)" style="fill:#fad395"/><path d="M129.71,325.43l33.83.81c-.81-18.7-.81-33.17,1.3-48.95,5.69-3.9,11.55-7.48,20.65-9.76-9.75-4.39-15-9.27-20.82-15.94,9.44-3.41,14.64-5.36,22.29-5.69,24.88,3.42,50.25,11.55,75.62,23.1-11.87.65-23.75,1.46-35.62,2.11,22.61,6,40.17,8.95,61,12.85,40.66-5,85.54-24.88,117.75-45.21a113.18,113.18,0,0,1,5.69,13.5c-4.56,6.18-10.57,10.73-20.49,15.28,9.11,2.28,14.8,5.86,20.65,9.76,2.12,15.78,2.12,30.25,1.3,48.95,11.72-.32,23.59-.48,35.62-.81-.81-18.54-2.11-35,1.14-63.75,4.23-5,6.67-13.17,7.81-20.33-5.86,2.44-14.8,4.39-19,4.06,4.88-2.43,10.08-6.5,15.61-14.47a385.12,385.12,0,0,0,3.42-42c-11.71,11.06-22.77,18.87-35.62,23.58,1.95-5.85,3.74-12.85,7-23.9-5.53-15.78-16.11-27.33-23.27-39.85a117.77,117.77,0,0,1-5.36,31.06,362.21,362.21,0,0,0-24.07-42.44c-14.64-12.2-31.88-22.94-52-33.83,12.36,16.26,26.18,35.78,34.15,55.46C344.55,143,338.53,135.15,324.87,122c-42-10.09-82.94-12.2-130.76-12.2,24.07,21.3,38.71,33.66,55,56.27-8.78-5.86-16.26-7.64-35.13-13.34-19.84,1.79-35.45,6-66.51,15.45,21.63,9.92,34.64,18.54,45.21,28.14-17.89,2.28-47.49,10.41-76.11,24.72,7.8,2.6,15,5.69,20.65,10.57l-13.66,1c4.72,35.45,5.53,64.07,6.18,92.53v.33Z" transform="translate(-19.12 -18.54)" style="fill:#7f3e13"/><path d="M163.21,265.91c-6.67-6-9.59-11.71-14-19.84l.17-.33L179.48,235c40.33,4.55,70.58,14.8,104.57,32.69.49-2.28,1.14-4.88,1.79-7.49-7-17.56-16.43-28-33.18-48.62,21.79,17.72,33.18,30.57,42.61,47.49-.49,3.25-1,6.18-1.63,9.1,5.69-5.85,9.76-11.87,14-20.16-1.14-20.49-3.42-31.72-10.09-61.15,13.5,25,17.89,42.61,20,62.94a130.68,130.68,0,0,1-8.14,13.66,147.87,147.87,0,0,0,19.36-14.15c2.93-18.22,2.6-27.16,2.44-52.86,6.34,24.56,6.83,39.36,5.69,57.74-3.74,3.41-7.48,6.5-11.22,9.43A307.49,307.49,0,0,0,400,230.29c3.58-4.55,7.32-9.43,9.76-14.8l8-25.86a116.43,116.43,0,0,0-6.18-11.87l-9.27,31.06c-10.9-22.12-19.68-42-33.51-64.73-3.74-3.41-10.57-8.62-14.8-11.71,8.46,16.75,11.23,27.16,15.78,38.55,7.32,11.06,10.08,17.56,13,29.76-22.12-27.81-36.1-45.54-63.59-68.79-32.36-7.49-64.89-10.09-97.74-10.9,28.3,26,42.12,48.46,64.73,79.53-25.21-17.89-45.22-28.14-74-36.92-5.37-.65-29.6,5.37-37.25,7.48,15.29,9.11,25.54,18.54,38.22,29.93-14.63,2.43-22.77,3.74-40.33,9.27a274.16,274.16,0,0,0-32.53,10.89l9.44,8.3c13.33-2.28,16.1-3.58,23.75-4.56-3.75,2.77-5.53,4.88-12.85,9.11-8.3,3.25-16.1,5.37-25.54,8.29,2.77,24.4,3.91,48.31,4.56,72.87l12.85.32a251.61,251.61,0,0,1,2.27-44.24l8.13-5.53ZM448,250.78C437.41,254,430.58,255,422.45,255a26.36,26.36,0,0,1-9.27,10.9c2.93,2.11,5,4.71,8,6.66,2.28,20.82,1.47,47.49,1.31,52.05l16.26,1.3a558.21,558.21,0,0,1,.49-58.87c-3.91,1.95-9.6,2.76-13.83,2.76,12.37-7.32,18.71-11.71,22.77-19Zm-27.48-3.9c4.55-1.47,17.24-8.46,24.07-19.19a91.18,91.18,0,0,0,1.62-15.94c-9.59,5.53-17.56,8.78-29.11,12.85-1,1.46-2.76,4.55-3.9,5.85A120.61,120.61,0,0,1,420.5,246.88Z" transform="translate(-19.12 -18.54)" style="fill:#b85a1b"/><path d="M284.05,267.7c.49-2.28,1.14-4.88,1.79-7.49-7-17.56-16.43-28-33.18-48.62,21.79,17.72,33.18,30.57,42.61,47.49-.49,3.25-1,6.18-1.63,9.1,5.69-5.85,9.76-11.87,14-20.16-1.14-20.49-3.42-31.72-10.09-61,13.5,25.05,17.89,42.61,20,62.94a130.68,130.68,0,0,1-8.14,13.66,147.87,147.87,0,0,0,19.36-14.15c2.93-18.21,2.6-27.16,2.27-52.86,6.35,24.56,6.84,39.36,5.7,57.74-3.74,3.42-7.48,6.5-11.23,9.43a303.53,303.53,0,0,0,58.39-24.23,189.61,189.61,0,0,0,11.22-28.14c-5.69,6-8.94,10.41-14.79,15.62a128.52,128.52,0,0,0,2.27-26.19C360.48,173,346.5,155.31,319,132.06c-32.36-7.48-64.89-10.08-97.74-10.9,28.3,26,42.12,48.47,64.73,79.53-25.21-17.89-45.21-28.13-74-36.92-5.37-.65-29.6,5.37-37.24,7.48,30.08,11.71,56.43,29.44,77.25,54-12.36-2.77-23.26-5.69-37.89-3.74,29.59,9.11,51.23,26,69.44,46.19Z" transform="translate(-19.12 -18.54)" style="fill:#ff9701"/><path d="M334.3,157.92c12.85,14.64,16.59,20.33,22.12,31.06-1.14,24.4-7.65,41.15-17.56,61.31C344.06,217.77,343.25,189.47,334.3,157.92ZM224.85,185.73c31.39,8,57.9,22.93,72.21,34.64,3.25,11.55,3.41,20.33,2.93,32.85C276.73,219.56,262.91,210.12,224.85,185.73Zm63.92-29.11c15.12,7.64,25.36,13.82,34.47,19.19,5.7,30.25,3.26,44.23,0,72.37-6.34-40.33-10.57-53.51-34.64-91.56Z" transform="translate(-19.12 -18.54)" style="fill:#fde049"/><path d="M288.93,331.45c-12.53,0-16.59-7.16-22.28-8-56.76-7.64-124.42-11.06-170.61-5.2-7.15,1-6.67,20.65,1.95,25.37,2.77,1.62,5.7,3.09,8.46,4.71,2.12,17.89,5.21,27.49,9.11,43.1,3.09,12,8.78,19.84,18.05,24.72,23.26,12.52,73.51,21.14,98.4,21.47,11.7.16,28.78-2.11,34.64-15.61,6.67-15,10.24-34.65,11.87-51.4,1-9.76,17.73-10.57,19,.65,1.78,16.75,5.36,35.95,11.87,50.75,5.85,13.33,22.93,15.77,34.64,15.61,24.89-.33,75.14-8.95,98.4-21.47,9.27-5,15-12.68,18.05-24.72,3.9-15.61,7-25.21,9.1-43.1,2.77-1.62,5.7-3.09,8.46-4.71,8.62-4.88,9.11-24.56,1.95-25.37-46.19-5.86-113.84-2.61-170.6,5.2-5.86.81-8.13,8-20.65,8Z" transform="translate(-19.12 -18.54)" style="fill:#232323"/><path d="M100,326.41c-.82,2.44-.17,6.83,1.46,6.5,26.83-3.58,65.38-4.71,160.52-1.62C210.54,324.62,151,320.23,100,326.41Zm376.33,0c.82,2.44.16,6.83-1.46,6.5-26.83-3.58-65.38-4.71-160.52-1.62C365.69,324.62,425.22,320.23,476.28,326.41Z" transform="translate(-19.12 -18.54)" style="fill:#3c3c3c"/><path d="M118,346.25c1.79,15,4.39,22.28,7.65,36.92s7.8,22.11,17.23,26.18c28.14,12.2,60.18,15.78,89.45,16.75,7.65.16,20.82-1.62,24.24-9.59,6.17-15,10.4-40.66,11.38-57.09.33-6.67-2.11-9.92-8.45-11.38-35.13-8-99.05-11.39-136.13-7.65-3.09.33-5.69,2.44-5.37,5.7v.16Zm340.23,0c-1.79,15-4.39,22.28-7.65,36.92s-7.8,22.11-17.23,26.18c-28.14,12.2-60.18,15.78-89.45,16.75-7.65.16-20.82-1.62-24.24-9.59-6.18-15-10.4-40.66-11.38-57.09-.33-6.67,2.12-9.92,8.46-11.38,35.12-8,99-11.39,136.12-7.65,3.09.33,5.7,2.44,5.37,5.7v.16Z" transform="translate(-19.12 -18.54)" style="fill:#ccc"/><path d="M118,346.25c1.79,15,4.39,22.28,7.65,36.92,2.59,11.22,5.85,18.21,11.38,22.76,34.8-21.46,70.26-40,125.88-56.75a11.49,11.49,0,0,0-3.58-1.14c-35.13-8-99-11.39-136.12-7.65-3.09.33-5.7,2.44-5.37,5.7Zm201.34,69.28c33.34-26.18,78.23-52.85,138.4-72.21a6,6,0,0,0-4.72-2.76c-37.08-3.75-101-.33-136.12,7.64-6.35,1.46-8.95,4.72-8.46,11.38,1,16.11,5,41.15,11.06,56.11Z" transform="translate(-19.12 -18.54)" style="fill:#fff"/></g></svg>