<?xml version="1.0" encoding="UTF-8" standalone="no"?>
<svg
   viewBox="0 0 128 128"
   version="1.1"
   id="svg6"
   sodipodi:docname="devicon-ember-origina.svg"
   xmlns:inkscape="http://www.inkscape.org/namespaces/inkscape"
   xmlns:sodipodi="http://sodipodi.sourceforge.net/DTD/sodipodi-0.dtd"
   xmlns="http://www.w3.org/2000/svg"
   xmlns:svg="http://www.w3.org/2000/svg">
  <defs
     id="defs10" />
  <sodipodi:namedview
     id="namedview8"
     pagecolor="#ffffff"
     bordercolor="#000000"
     borderopacity="0.25"
     inkscape:showpageshadow="2"
     inkscape:pageopacity="0.0"
     inkscape:pagecheckerboard="0"
     inkscape:deskcolor="#d1d1d1" />
  <path
     fill="#E04E39"
     d="M0 0h128v128H0Z"
     id="path2" />
  <path
     fill="#fff"
     fill-rule="evenodd"
     d="M65.265 24.128c8.246-.163 14.073 2.073 19.087 9.19 10.934 27.109-28.147 41.1-29.714 41.65l-.049.016s-1.18 7.363 10.028 7.08c13.793 0 28.294-10.691 33.81-15.21a3.293 3.293 0 0 1 4.468.265l4.13 4.29a3.291 3.291 0 0 1 .085 4.491c-3.59 3.997-12.014 12.203-24.696 17.504 0 0-21.16 9.798-35.42.52-8.503-5.53-10.842-12.151-11.793-19.038.005 0-10.324-.524-16.957-3.114-6.635-2.592.049-10.411.049-10.411s2.04-3.233 5.92 0c3.883 3.228 11.13 1.772 11.13 1.772.646-5.099 1.72-11.828 4.884-18.93 6.632-14.885 16.789-19.915 25.038-20.075zm4.853 14.915c-4.369-4.21-16.984 4.202-17.471 23.45 0 0 3.724 1.134 11.97-4.53 8.25-5.661 9.87-14.718 5.501-18.92z"
     id="path4" />
</svg>
