<?xml version="1.0" encoding="UTF-8" standalone="no"?>
<svg
   viewBox="0 0 128 128"
   version="1.1"
   id="svg56"
   sodipodi:docname="devicon-embeddedc-origina.svg"
   xmlns:inkscape="http://www.inkscape.org/namespaces/inkscape"
   xmlns:sodipodi="http://sodipodi.sourceforge.net/DTD/sodipodi-0.dtd"
   xmlns="http://www.w3.org/2000/svg"
   xmlns:svg="http://www.w3.org/2000/svg">
  <defs
     id="defs60" />
  <sodipodi:namedview
     id="namedview58"
     pagecolor="#ffffff"
     bordercolor="#000000"
     borderopacity="0.25"
     inkscape:showpageshadow="2"
     inkscape:pageopacity="0.0"
     inkscape:pagecheckerboard="0"
     inkscape:deskcolor="#d1d1d1" />
  <g
     transform="matrix(1 0 0 .8 0 27.184)"
     fill="#b3b3b3"
     id="g54">
    <g
       transform="translate(112)"
       id="g12">
      <rect
         y="86"
         width="16"
         height="10"
         ry="2"
         id="rect2" />
      <rect
         y="41"
         width="16"
         height="10"
         ry="2"
         id="rect4" />
      <rect
         y="18.5"
         width="16"
         height="10"
         ry="2"
         id="rect6" />
      <rect
         y="-4"
         width="16"
         height="10"
         ry="2"
         id="rect8" />
      <rect
         y="63.5"
         width="16"
         height="10"
         ry="2"
         id="rect10" />
    </g>
    <g
       transform="matrix(0 1.25 -.8 0 100.82 106.02)"
       id="g24">
      <rect
         y="86"
         width="16"
         height="10"
         ry="2"
         id="rect14" />
      <rect
         y="41"
         width="16"
         height="10"
         ry="2"
         id="rect16" />
      <rect
         y="18.5"
         width="16"
         height="10"
         ry="2"
         id="rect18" />
      <rect
         y="-4"
         width="16"
         height="10"
         ry="2"
         id="rect20" />
      <rect
         y="63.5"
         width="16"
         height="10"
         ry="2"
         id="rect22" />
    </g>
    <rect
       y="86"
       width="16"
       height="10"
       ry="2"
       id="rect26" />
    <rect
       y="41"
       width="16"
       height="10"
       ry="2"
       id="rect28" />
    <rect
       y="18.5"
       width="16"
       height="10"
       ry="2"
       id="rect30" />
    <rect
       y="-4"
       width="16"
       height="10"
       ry="2"
       id="rect32" />
    <rect
       y="63.5"
       width="16"
       height="10"
       ry="2"
       id="rect34" />
    <g
       transform="matrix(0 1.25 -.8 0 100.82 -33.979)"
       id="g46">
      <rect
         y="86"
         width="16"
         height="10"
         ry="2"
         id="rect36" />
      <rect
         y="41"
         width="16"
         height="10"
         ry="2"
         id="rect38" />
      <rect
         y="18.5"
         width="16"
         height="10"
         ry="2"
         id="rect40" />
      <rect
         y="-4"
         width="16"
         height="10"
         ry="2"
         id="rect42" />
      <rect
         y="63.5"
         width="16"
         height="10"
         ry="2"
         id="rect44" />
    </g>
    <rect
       x="14"
       y="-17.5"
       width="100"
       height="126"
       ry="3.8"
       fill="#000"
       id="rect48" />
    <path
       d="M85.3 61.1C81.1 70.4 73.1 76.6 64 76.6c-13.5 0-24.5-13.7-24.5-30.6s11-30.6 24.5-30.6c9.1 0 17.1 6.3 21.3 15.6l13-9.4C91.5 6.7 78.7-3.4 64-3.4 42.2-3.4 24.5 18.7 24.5 46S42.2 95.4 64 95.4c14.6 0 27.4-10 34.2-24.7z"
       fill="#fff"
       id="path50" />
    <ellipse
       cx="23"
       cy="-5.2"
       rx="3"
       ry="3.8"
       fill="#fff"
       id="ellipse52" />
  </g>
</svg>
