<?xml version="1.0" encoding="UTF-8" standalone="no"?>
<svg
   viewBox="0 0 128 128"
   version="1.1"
   id="svg8"
   sodipodi:docname="devicon-protractor-origina.svg"
   xmlns:inkscape="http://www.inkscape.org/namespaces/inkscape"
   xmlns:sodipodi="http://sodipodi.sourceforge.net/DTD/sodipodi-0.dtd"
   xmlns="http://www.w3.org/2000/svg"
   xmlns:svg="http://www.w3.org/2000/svg">
  <defs
     id="defs12" />
  <sodipodi:namedview
     id="namedview10"
     pagecolor="#ffffff"
     bordercolor="#000000"
     borderopacity="0.25"
     inkscape:showpageshadow="2"
     inkscape:pageopacity="0.0"
     inkscape:pagecheckerboard="0"
     inkscape:deskcolor="#d1d1d1" />
  <path
     fill="#ed163a"
     d="M127.995 63.995c0 35.349-28.649 64.002-63.998 64.002C28.65 127.998 0 99.35 0 64 0 28.651 28.649.002 63.998.002c35.348 0 63.997 28.65 63.997 63.998"
     id="path2" />
  <path
     fill="#d51c2f"
     d="m97.036 33.131-21.769-.2-12.724-12.73-14.94 9.925 2.58 2.575-6.05-.05-20.549 34.564h-8.05l5.05 5.06-5.09 8.57 47.144 47.137 1.364.015c35.314 0 63.948-28.609 63.998-63.907L97.04 33.126"
     id="path4" />
  <path
     fill="#f5f5f5"
     d="M32.464 68.675a31.531 31.531 0 1 1 63.062 0zm70.882 1.45v-2.91h9.12A48.303 48.303 0 0 0 99.3 35.426l-6.815 6.815-2.055-2.06 6.81-6.815a48.288 48.288 0 0 0-31.789-13.164v9.12h-2.91v-9.12a48.298 48.298 0 0 0-31.788 13.164l6.815 6.815-2.06 2.06-6.815-6.815a48.313 48.313 0 0 0-13.165 31.789h9.12v2.91h-9.165v10.674H112.5V70.13h-9.155"
     id="path6" />
</svg>
