<?xml version="1.0" encoding="UTF-8" standalone="no"?>
<svg
   viewBox="0 0 128 128"
   version="1.1"
   id="svg20"
   sodipodi:docname="devicon-opera-origina.svg"
   xmlns:inkscape="http://www.inkscape.org/namespaces/inkscape"
   xmlns:sodipodi="http://sodipodi.sourceforge.net/DTD/sodipodi-0.dtd"
   xmlns="http://www.w3.org/2000/svg"
   xmlns:svg="http://www.w3.org/2000/svg">
  <sodipodi:namedview
     id="namedview22"
     pagecolor="#ffffff"
     bordercolor="#000000"
     borderopacity="0.25"
     inkscape:showpageshadow="2"
     inkscape:pageopacity="0.0"
     inkscape:pagecheckerboard="0"
     inkscape:deskcolor="#d1d1d1" />
  <defs
     id="defs14">
    <linearGradient
       id="opera-original-a"
       gradientUnits="userSpaceOnUse"
       x1="53.327"
       y1="2.095"
       x2="53.327"
       y2="126.143">
      <stop
         offset="0"
         stop-color="#FF1B2D"
         id="stop2" />
      <stop
         offset=".614"
         stop-color="#FF1B2D"
         id="stop4" />
      <stop
         offset="1"
         stop-color="#A70014"
         id="stop6" />
    </linearGradient>
    <linearGradient
       id="opera-original-b"
       gradientUnits="userSpaceOnUse"
       x1="85.463"
       y1="9.408"
       x2="85.463"
       y2="119.121">
      <stop
         offset="0"
         stop-color="#9C0000"
         id="stop9" />
      <stop
         offset=".7"
         stop-color="#FF4B4B"
         id="stop11" />
    </linearGradient>
  </defs>
  <path
     d="M63.996.008C28.652.008 0 28.66 0 64.008c0 34.32 27.02 62.332 60.949 63.922 1.012.047 2.027.074 3.047.074a63.77 63.77 0 0042.652-16.285c-7.5 4.973-16.273 7.836-25.645 7.836-15.242 0-28.891-7.562-38.07-19.484-7.078-8.352-11.66-20.699-11.973-34.559V62.5c.313-13.859 4.895-26.207 11.973-34.559C52.113 16.016 65.762 8.457 81 8.457c9.375 0 18.148 2.863 25.652 7.84C95.383 6.219 80.531.07 64.238.008h-.242zm0 0"
     fill="url(#opera-original-a)"
     id="path16" />
  <path
     d="M42.934 27.945c5.871-6.934 13.457-11.117 21.742-11.117 18.633 0 33.734 21.125 33.734 47.18s-15.102 47.18-33.734 47.18c-8.285 0-15.871-4.18-21.742-11.113 9.18 11.926 22.828 19.484 38.07 19.484 9.375 0 18.145-2.863 25.645-7.836 13.102-11.719 21.348-28.754 21.348-47.715s-8.246-35.988-21.344-47.707c-7.5-4.977-16.273-7.84-25.648-7.84-15.242 0-28.891 7.562-38.07 19.484"
     fill="url(#opera-original-b)"
     id="path18" />
</svg>
