<?xml version="1.0" encoding="UTF-8" standalone="no"?>
<svg
   viewBox="0 0 128 128"
   version="1.1"
   id="svg6"
   sodipodi:docname="devicon-vagrant-origina.svg"
   xmlns:inkscape="http://www.inkscape.org/namespaces/inkscape"
   xmlns:sodipodi="http://sodipodi.sourceforge.net/DTD/sodipodi-0.dtd"
   xmlns="http://www.w3.org/2000/svg"
   xmlns:svg="http://www.w3.org/2000/svg">
  <defs
     id="defs10" />
  <sodipodi:namedview
     id="namedview8"
     pagecolor="#ffffff"
     bordercolor="#000000"
     borderopacity="0.25"
     inkscape:showpageshadow="2"
     inkscape:pageopacity="0.0"
     inkscape:pagecheckerboard="0"
     inkscape:deskcolor="#d1d1d1" />
  <path
     fill="#1159cc"
     d="M122.5 23.9V12.82L95.91 28.3v9.34l-21.28 45.9-10.64 7.33v33.61l22.81-13.15 35.7-87.43zM63.99 66.94L48.04 29.71V19.19l-.11-.06-15.84 9.17v9.34l21.27 47.91 10.63-5.25V66.94z"
     id="path2" />
  <path
     fill="#127eff"
     d="M106.55 3.52L79.97 19.09l-.02-.01V29.71L63.99 66.94v12.45l-10.63 6.16-21.27-47.91v-9.36l15.96-9.19-26.6-15.57-15.95 9.3v11.42l35.9 87.2 22.59 13.04V91.72l10.64-6.17-.13-.08 21.41-47.83v-9.36l26.59-15.46-15.95-9.3z"
     id="path4" />
</svg>
