<?xml version="1.0" encoding="UTF-8" standalone="no"?>
<svg
   viewBox="0 0 128 128"
   version="1.1"
   id="svg4"
   sodipodi:docname="devicon-crystal-origina.svg"
   xmlns:inkscape="http://www.inkscape.org/namespaces/inkscape"
   xmlns:sodipodi="http://sodipodi.sourceforge.net/DTD/sodipodi-0.dtd"
   xmlns="http://www.w3.org/2000/svg"
   xmlns:svg="http://www.w3.org/2000/svg">
  <defs
     id="defs8" />
  <sodipodi:namedview
     id="namedview6"
     pagecolor="#ffffff"
     bordercolor="#000000"
     borderopacity="0.25"
     inkscape:showpageshadow="2"
     inkscape:pageopacity="0.0"
     inkscape:pagecheckerboard="0"
     inkscape:deskcolor="#d1d1d1" />
  <path
     d="m127.806 81.328-46.325 45.987c-.185.185-.464.276-.65.185l-63.283-16.863c-.279-.095-.464-.28-.464-.464L.035 47.317c-.09-.275 0-.46.186-.645L46.55.685c.184-.185.463-.276.649-.185l63.28 16.863c.278.095.463.28.463.464L127.9 80.682c.185.275.09.46-.094.645zM65.726 31.28 3.557 47.778c-.095 0-.185.185-.095.28l45.495 45.156c.09.095.28.095.28-.09l16.675-61.748c.095 0-.09-.185-.184-.094zm0 0"
     id="path2" />
</svg>
