<?xml version="1.0" encoding="UTF-8" standalone="no"?>
<svg
   viewBox="0 0 128 128"
   version="1.1"
   id="svg6"
   sodipodi:docname="devicon-scalingo-origina.svg"
   xmlns:inkscape="http://www.inkscape.org/namespaces/inkscape"
   xmlns:sodipodi="http://sodipodi.sourceforge.net/DTD/sodipodi-0.dtd"
   xmlns="http://www.w3.org/2000/svg"
   xmlns:svg="http://www.w3.org/2000/svg">
  <defs
     id="defs10" />
  <sodipodi:namedview
     id="namedview8"
     pagecolor="#ffffff"
     bordercolor="#000000"
     borderopacity="0.25"
     inkscape:showpageshadow="2"
     inkscape:pageopacity="0.0"
     inkscape:pagecheckerboard="0"
     inkscape:deskcolor="#d1d1d1" />
  <path
     fill="#21cfee"
     d="M53.903 7.868c4.239-7.28 13.737-9.995 21.214-6.07 7.478 3.928 10.105 13.012 5.869 20.289L52.294 71.362c-4.239 7.277-13.737 9.996-21.214 6.067-7.478-3.925-10.105-13.01-5.87-20.288Zm0 0"
     id="path2" />
  <path
     fill="#173aee"
     d="M75.706 56.639c4.239-7.28 13.736-9.996 21.214-6.07 7.478 3.928 10.105 13.012 5.869 20.288l-28.692 49.277c-4.239 7.277-13.737 9.995-21.214 6.067-7.478-3.926-10.108-13.01-5.869-20.29zm0 0"
     id="path4" />
</svg>
