<?xml version="1.0" encoding="UTF-8" standalone="no"?>
<svg
   viewBox="0 0 128 128"
   version="1.1"
   id="svg6"
   sodipodi:docname="devicon-netlify-origina.svg"
   xmlns:inkscape="http://www.inkscape.org/namespaces/inkscape"
   xmlns:sodipodi="http://sodipodi.sourceforge.net/DTD/sodipodi-0.dtd"
   xmlns="http://www.w3.org/2000/svg"
   xmlns:svg="http://www.w3.org/2000/svg">
  <defs
     id="defs10" />
  <sodipodi:namedview
     id="namedview8"
     pagecolor="#ffffff"
     bordercolor="#000000"
     borderopacity="0.25"
     inkscape:showpageshadow="2"
     inkscape:pageopacity="0.0"
     inkscape:pagecheckerboard="0"
     inkscape:deskcolor="#d1d1d1" />
  <path
     d="M80.46 82.605h-8.777l-.734-.733V61.326c0-3.656-1.436-6.489-5.844-6.588-2.269-.06-4.864 0-7.638.11l-.416.425v26.589l-.733.733H47.54l-.733-.733V46.764l.733-.733h19.753c7.677 0 13.899 6.22 13.899 13.898v21.943l-.733.733Z"
     fill="#014847"
     id="path2" />
  <path
     d="M58.942 119.902v-26.33l.733-.734h8.797l.733.733v26.331l-.733.733h-8.796zm0-84.838V8.734L59.675 8h8.797l.733.733v26.331l-.733.733h-8.796zm68.335 34.385H92.169l-.733-.733V59.92l.733-.733h35.108l.733.733v8.797zm-91.436 0H.733L0 68.716V59.92l.733-.733h35.108l.733.733v8.797zm-8.49-35.633v-1.209l6.034-6.033h1.208l9.223 9.223v6.39l-.852.852h-6.39zm7.242 68.235h-1.208l-6.033-6.033v-1.209l9.223-9.222h6.39l.851.851v6.39z"
     fill="#05bdba"
     id="path4" />
</svg>
