<?xml version="1.0" encoding="UTF-8" standalone="no"?>
<svg
   viewBox="0 0 128 128"
   version="1.1"
   id="svg18"
   sodipodi:docname="devicon-vyper-origina.svg"
   xmlns:inkscape="http://www.inkscape.org/namespaces/inkscape"
   xmlns:sodipodi="http://sodipodi.sourceforge.net/DTD/sodipodi-0.dtd"
   xmlns="http://www.w3.org/2000/svg"
   xmlns:svg="http://www.w3.org/2000/svg">
  <defs
     id="defs22" />
  <sodipodi:namedview
     id="namedview20"
     pagecolor="#ffffff"
     bordercolor="#000000"
     borderopacity="0.25"
     inkscape:showpageshadow="2"
     inkscape:pageopacity="0.0"
     inkscape:pagecheckerboard="0"
     inkscape:deskcolor="#d1d1d1" />
  <polygon
     transform="matrix(.0625 0 0 .0625 3.75e-7 8.5744)"
     points="1280 1330.2 1024 886.81 768 1330.2 1024 1773.6"
     opacity=".8"
     id="polygon2" />
  <polygon
     transform="matrix(.0625 0 0 .0625 3.75e-7 8.5744)"
     points="1536 886.81 1280 443.41 1024 886.81 1280 1330.2"
     opacity=".6"
     id="polygon4" />
  <polygon
     transform="matrix(.0625 0 0 .0625 3.75e-7 8.5744)"
     points="1024 886.81 768 443.41 512 886.81 768 1330.2"
     opacity=".6"
     id="polygon6" />
  <polygon
     transform="matrix(.0625 0 0 .0625 3.75e-7 8.5744)"
     points="1792 443.41 1536 0 1280 443.41 1536 886.81"
     opacity=".45"
     id="polygon8" />
  <polygon
     transform="matrix(.0625 0 0 .0625 3.75e-7 8.5744)"
     points="768 443.41 1024 886.81 1280 443.41 1152 221.7 896 221.7"
     opacity=".45"
     id="polygon10" />
  <polygon
     transform="matrix(.0625 0 0 .0625 3.75e-7 8.5744)"
     points="768 443.41 512 0 256 443.41 512 886.81"
     opacity=".45"
     id="polygon12" />
  <polygon
     transform="matrix(.0625 0 0 .0625 3.75e-7 8.5744)"
     points="2048 0 1536 0 1792 443.4"
     opacity=".3"
     id="polygon14" />
  <polygon
     transform="matrix(.0625 0 0 .0625 3.75e-7 8.5744)"
     points="512 0 0 0 256 443.4"
     opacity=".3"
     id="polygon16" />
</svg>
