<?xml version="1.0" encoding="UTF-8" standalone="no"?>
<svg
   width="128"
   height="128"
   viewBox="0 0 128 128"
   version="1.1"
   id="svg4"
   sodipodi:docname="devicon-ros-origina.svg"
   xmlns:inkscape="http://www.inkscape.org/namespaces/inkscape"
   xmlns:sodipodi="http://sodipodi.sourceforge.net/DTD/sodipodi-0.dtd"
   xmlns="http://www.w3.org/2000/svg"
   xmlns:svg="http://www.w3.org/2000/svg">
  <defs
     id="defs8" />
  <sodipodi:namedview
     id="namedview6"
     pagecolor="#ffffff"
     bordercolor="#000000"
     borderopacity="0.25"
     inkscape:showpageshadow="2"
     inkscape:pageopacity="0.0"
     inkscape:pagecheckerboard="0"
     inkscape:deskcolor="#d1d1d1" />
  <path
     style="stroke:none;fill-rule:nonzero;fill:#22314e;fill-opacity:1"
     d="M33.875 22.45c0 6.898-5.418 12.488-12.102 12.488-6.683 0-12.101-5.59-12.101-12.489 0-6.894 5.418-12.484 12.101-12.484 6.684 0 12.102 5.59 12.102 12.484Zm0 42.55c0 6.895-5.418 12.484-12.102 12.484-6.683 0-12.101-5.59-12.101-12.484 0-6.895 5.418-12.484 12.101-12.484 6.684 0 12.102 5.59 12.102 12.484Zm0 42.55c0 6.895-5.418 12.485-12.102 12.485-6.683 0-12.101-5.59-12.101-12.484 0-6.895 5.418-12.489 12.101-12.489 6.684 0 12.102 5.594 12.102 12.489ZM76.102 65c0 6.895-5.418 12.484-12.102 12.484S51.898 71.894 51.898 65c0-6.895 5.418-12.484 12.102-12.484S76.102 58.106 76.102 65Zm0-42.55c0 6.898-5.418 12.488-12.102 12.488s-12.102-5.59-12.102-12.489c0-6.894 5.418-12.484 12.102-12.484s12.102 5.59 12.102 12.484ZM118.328 65c0 6.895-5.418 12.484-12.101 12.484-6.684 0-12.102-5.59-12.102-12.484 0-6.895 5.422-12.484 12.102-12.484 6.683 0 12.101 5.59 12.101 12.484Zm0-42.55c0 6.898-5.418 12.488-12.101 12.488-6.684 0-12.102-5.59-12.102-12.489 0-6.894 5.422-12.484 12.102-12.484 6.683 0 12.101 5.59 12.101 12.484Zm0 85.1c0 6.895-5.418 12.485-12.101 12.485-6.684 0-12.102-5.59-12.102-12.484 0-6.895 5.422-12.489 12.102-12.489 6.683 0 12.101 5.594 12.101 12.489Zm-42.226 0c0 6.895-5.418 12.485-12.102 12.485s-12.102-5.59-12.102-12.484c0-6.895 5.418-12.489 12.102-12.489s12.102 5.594 12.102 12.489Zm0 0"
     id="path2" />
</svg>
