<?xml version="1.0" encoding="UTF-8" standalone="no"?>
<svg
   viewBox="0 0 128 128"
   version="1.1"
   id="svg18"
   sodipodi:docname="devicon-pytest-origina.svg"
   xmlns:inkscape="http://www.inkscape.org/namespaces/inkscape"
   xmlns:sodipodi="http://sodipodi.sourceforge.net/DTD/sodipodi-0.dtd"
   xmlns="http://www.w3.org/2000/svg"
   xmlns:svg="http://www.w3.org/2000/svg">
  <defs
     id="defs22" />
  <sodipodi:namedview
     id="namedview20"
     pagecolor="#ffffff"
     bordercolor="#000000"
     borderopacity="0.25"
     inkscape:showpageshadow="2"
     inkscape:pageopacity="0.0"
     inkscape:pagecheckerboard="0"
     inkscape:deskcolor="#d1d1d1" />
  <path
     d="M31.512 30.398h61.304a3.006 3.006 0 010 6.012H31.512a3.007 3.007 0 01-3.004-3.004 3.008 3.008 0 013.004-3.008zm0 0"
     fill="#696969"
     id="path2" />
  <path
     d="M32.047 24.32H44.37v2.844H32.047zm0 0"
     fill="#009fe3"
     id="path4" />
  <path
     d="M48.168 24.32h12.324v2.844H48.168zm0 0"
     fill="#c7d302"
     id="path6" />
  <path
     d="M64.07 24.32h12.328v2.844H64.07zm0 0"
     fill="#f07e16"
     id="path8" />
  <path
     d="M79.91 24.32h12.324v2.844H79.91zm0 15.22h12.324v20.835H79.91zm0 0"
     fill="#df2815"
     id="path10" />
  <path
     d="M64.07 39.54h12.352v33.847H64.07zm0 0"
     fill="#f07e16"
     id="path12" />
  <path
     d="M48.168 39.54h12.324v50.698H48.168zm0 0"
     fill="#c7d302"
     id="path14" />
  <path
     d="M32.047 39.54H44.37v61.792H32.047zm0 0"
     fill="#009fe3"
     id="path16" />
</svg>
