<?xml version="1.0" encoding="UTF-8" standalone="no"?>
<svg
   viewBox="0 0 128 128"
   version="1.1"
   id="svg4"
   sodipodi:docname="devicon-couchdb-origina.svg"
   xmlns:inkscape="http://www.inkscape.org/namespaces/inkscape"
   xmlns:sodipodi="http://sodipodi.sourceforge.net/DTD/sodipodi-0.dtd"
   xmlns="http://www.w3.org/2000/svg"
   xmlns:svg="http://www.w3.org/2000/svg">
  <defs
     id="defs8" />
  <sodipodi:namedview
     id="namedview6"
     pagecolor="#ffffff"
     bordercolor="#000000"
     borderopacity="0.25"
     inkscape:showpageshadow="2"
     inkscape:pageopacity="0.0"
     inkscape:pagecheckerboard="0"
     inkscape:deskcolor="#d1d1d1" />
  <path
     fill="#e42528"
     d="M101.4 77.2c0 5-2.7 7.5-7.6 7.7H33.9c-4.9 0-7.6-2.5-7.6-7.7 0-5 2.7-7.5 7.6-7.7h60.2c4.9.2 7.3 2.7 7.3 7.7zm-7.3 11.5H33.9c-4.9 0-7.6 2.4-7.6 7.7 0 5 2.7 7.4 7.6 7.7h60.2c4.9 0 7.6-2.5 7.6-7.7-.3-5.3-2.7-7.7-7.6-7.7zm18.6-42.1c-4.9 0-7.6 2.5-7.6 7.4v42.1c0 5 2.7 7.5 7.6 7.7 7.4-.2 11.3-7.7 11.3-22.9V62c0-10.2-3.9-15.2-11.3-15.4zm-97.4 0C7.9 46.8 4 51.8 4 62v18.9c0 15.2 3.9 22.7 11.3 22.9 4.9 0 7.6-2.4 7.6-7.7V54.3c-.2-5-2.7-7.5-7.6-7.7zm97.4-3.8c0-12.7-6.6-18.7-18.6-18.9H33.9c-12.2.2-18.6 6.5-18.6 18.9 7.4 0 11.3 4 11.3 11.5s3.9 11.4 11.3 11.4h52.5c7.3 0 11.3-3.9 11.3-11.4-.3-7.7 3.9-11.2 11-11.5z"
     id="path2" />
</svg>
