<?xml version="1.0" encoding="UTF-8" standalone="no"?>
<svg
   viewBox="0 0 128 128"
   version="1.1"
   id="svg20"
   sodipodi:docname="devicon-jira-origina.svg"
   xmlns:inkscape="http://www.inkscape.org/namespaces/inkscape"
   xmlns:sodipodi="http://sodipodi.sourceforge.net/DTD/sodipodi-0.dtd"
   xmlns="http://www.w3.org/2000/svg"
   xmlns:svg="http://www.w3.org/2000/svg">
  <sodipodi:namedview
     id="namedview22"
     pagecolor="#ffffff"
     bordercolor="#000000"
     borderopacity="0.25"
     inkscape:showpageshadow="2"
     inkscape:pageopacity="0.0"
     inkscape:pagecheckerboard="0"
     inkscape:deskcolor="#d1d1d1" />
  <defs
     id="defs12">
    <linearGradient
       id="jira-original-a"
       gradientUnits="userSpaceOnUse"
       x1="22.034"
       y1="9.773"
       x2="17.118"
       y2="14.842"
       gradientTransform="scale(4)">
      <stop
         offset=".176"
         stop-color="#0052cc"
         id="stop2" />
      <stop
         offset="1"
         stop-color="#2684ff"
         id="stop4" />
    </linearGradient>
    <linearGradient
       id="jira-original-b"
       gradientUnits="userSpaceOnUse"
       x1="16.641"
       y1="15.564"
       x2="10.957"
       y2="21.094"
       gradientTransform="scale(4)">
      <stop
         offset=".176"
         stop-color="#0052cc"
         id="stop7" />
      <stop
         offset="1"
         stop-color="#2684ff"
         id="stop9" />
    </linearGradient>
  </defs>
  <path
     d="M108.023 16H61.805c0 11.52 9.324 20.848 20.847 20.848h8.5v8.226c0 11.52 9.328 20.848 20.848 20.848V19.977A3.98 3.98 0 00108.023 16zm0 0"
     fill="#2684ff"
     id="path14" />
  <path
     d="M85.121 39.04H38.902c0 11.519 9.325 20.847 20.844 20.847h8.504v8.226c0 11.52 9.328 20.848 20.848 20.848V43.016a3.983 3.983 0 00-3.977-3.977zm0 0"
     fill="url(#jira-original-a)"
     id="path16" />
  <path
     d="M62.219 62.078H16c0 11.524 9.324 20.848 20.848 20.848h8.5v8.23c0 11.52 9.328 20.844 20.847 20.844V66.059a3.984 3.984 0 00-3.976-3.98zm0 0"
     fill="url(#jira-original-b)"
     id="path18" />
</svg>
