<?xml version="1.0" encoding="UTF-8" standalone="no"?>
<svg
   viewBox="0 0 128 128"
   version="1.1"
   id="svg8"
   sodipodi:docname="devicon-beats-origina.svg"
   xmlns:inkscape="http://www.inkscape.org/namespaces/inkscape"
   xmlns:sodipodi="http://sodipodi.sourceforge.net/DTD/sodipodi-0.dtd"
   xmlns="http://www.w3.org/2000/svg"
   xmlns:svg="http://www.w3.org/2000/svg">
  <defs
     id="defs12" />
  <sodipodi:namedview
     id="namedview10"
     pagecolor="#ffffff"
     bordercolor="#000000"
     borderopacity="0.25"
     inkscape:showpageshadow="2"
     inkscape:pageopacity="0.0"
     inkscape:pagecheckerboard="0"
     inkscape:deskcolor="#d1d1d1" />
  <path
     fill="#07c"
     d="M93.352 54.215A39.83 39.83 0 0 0 96 40C96 17.906 78.094 0 56 0H12v48h60c7.86 0 15.168 2.3 21.352 6.215"
     id="path2" />
  <path
     fill="#00bfb3"
     d="M102.809 62.496C94.399 79.922 76.609 92 56 92H12v36h60c22.09 0 40-17.914 40-40a39.828 39.828 0 0 0-9.191-25.512"
     id="path4" />
  <path
     fill="#343741"
     d="M93.352 54.215A39.793 39.793 0 0 0 72 48H12v32h44c17.078 0 31.613-10.719 37.352-25.785"
     id="path6" />
</svg>
