<?xml version="1.0" encoding="UTF-8" standalone="no"?>
<svg
   viewBox="0 0 128 128"
   version="1.1"
   id="svg4"
   sodipodi:docname="devicon-packer-lin.svg"
   xmlns:inkscape="http://www.inkscape.org/namespaces/inkscape"
   xmlns:sodipodi="http://sodipodi.sourceforge.net/DTD/sodipodi-0.dtd"
   xmlns="http://www.w3.org/2000/svg"
   xmlns:svg="http://www.w3.org/2000/svg">
  <defs
     id="defs8" />
  <sodipodi:namedview
     id="namedview6"
     pagecolor="#ffffff"
     bordercolor="#000000"
     borderopacity="0.25"
     inkscape:showpageshadow="2"
     inkscape:pageopacity="0.0"
     inkscape:pagecheckerboard="0"
     inkscape:deskcolor="#d1d1d1" />
  <path
     fill="#1d94dd"
     d="M41.604 0v18.943L71.853 36.41v53.397l14.487 8.3c4.495 2.595 8.655 3.163 11.753 1.853 3.098-1.31 5.007-4.512 5.007-9.05V51.756c0-9.083-7.279-20.513-16.266-25.703zm.987 1.707L86.34 26.91c8.638 4.989 15.772 16.302 15.772 24.848V90.91c0 4.27-1.695 6.997-4.403 8.142-2.708 1.145-6.557.694-10.876-1.8l-13.995-8.014V35.84L42.591 18.372ZM24.9 15.436v88.35L66.814 128V39.657Zm.986 1.71 39.942 23.081v86.062l-39.942-23.073Z"
     id="path2" />
</svg>
