<?xml version="1.0" encoding="UTF-8" standalone="no"?>
<svg
   viewBox="0 0 128 128"
   version="1.1"
   id="svg14"
   sodipodi:docname="devicon-capacitor-origina.svg"
   xmlns:inkscape="http://www.inkscape.org/namespaces/inkscape"
   xmlns:sodipodi="http://sodipodi.sourceforge.net/DTD/sodipodi-0.dtd"
   xmlns="http://www.w3.org/2000/svg"
   xmlns:svg="http://www.w3.org/2000/svg">
  <defs
     id="defs18" />
  <sodipodi:namedview
     id="namedview16"
     pagecolor="#ffffff"
     bordercolor="#000000"
     borderopacity="0.25"
     inkscape:showpageshadow="2"
     inkscape:pageopacity="0.0"
     inkscape:pagecheckerboard="0"
     inkscape:deskcolor="#d1d1d1" />
  <path
     fill="#53b9ff"
     d="M19.93 27.059.156 46.859l30.496 30.59L0 108.191l19.715 19.813L50.43 97.25l30.547 30.531 19.777-19.8Zm0 0"
     id="path2" />
  <path
     fill="#119eff"
     d="M70.258 77.45 50.43 97.25l30.547 30.531 19.777-19.8Zm0 0"
     id="path4" />
  <path
     fill-opacity=".2"
     d="M70.258 77.45 50.43 97.25l7.633 7.59Zm0 0"
     id="path6" />
  <path
     fill="#53b9ff"
     d="M97.285 50.492 128 19.738 108.215 0 77.512 30.691 46.957.156 27.184 19.957l80.82 80.922 19.777-19.8Zm0 0"
     id="path8" />
  <path
     fill="#119eff"
     d="m57.68 50.492 19.828-19.8L46.957.155 27.184 19.957Zm0 0"
     id="path10" />
  <path
     fill-opacity=".2"
     d="m57.68 50.492 19.828-19.8-7.633-7.594Zm0 0"
     id="path12" />
</svg>
