<?xml version="1.0" encoding="UTF-8" standalone="no"?>
<svg
   xml:space="preserve"
   viewBox="0 0 128 128"
   version="1.1"
   id="svg26"
   sodipodi:docname="devicon-powershell-origina.svg"
   xmlns:inkscape="http://www.inkscape.org/namespaces/inkscape"
   xmlns:sodipodi="http://sodipodi.sourceforge.net/DTD/sodipodi-0.dtd"
   xmlns="http://www.w3.org/2000/svg"
   xmlns:svg="http://www.w3.org/2000/svg"><defs
     id="defs30" /><sodipodi:namedview
     id="namedview28"
     pagecolor="#ffffff"
     bordercolor="#000000"
     borderopacity="0.25"
     inkscape:showpageshadow="2"
     inkscape:pageopacity="0.0"
     inkscape:pagecheckerboard="0"
     inkscape:deskcolor="#d1d1d1" /><linearGradient
     id="a"
     x1="96.306"
     x2="25.454"
     y1="35.144"
     y2="98.431"
     gradientTransform="matrix(1 0 0 -1 0 128)"
     gradientUnits="userSpaceOnUse"><stop
       offset="0"
       stop-color="#a9c8ff"
       id="stop2" /><stop
       offset="1"
       stop-color="#c7e6ff"
       id="stop4" /></linearGradient><path
     fill="url(#a)"
     fill-rule="evenodd"
     d="M7.2 110.5c-1.7 0-3.1-.7-4.1-1.9-1-1.2-1.3-2.9-.9-4.6l18.6-80.5c.8-3.4 4-6 7.4-6h92.6c1.7 0 3.1.7 4.1 1.9 1 1.2 1.3 2.9.9 4.6l-18.6 80.5c-.8 3.4-4 6-7.4 6H7.2z"
     clip-rule="evenodd"
     opacity=".8"
     id="path7" /><linearGradient
     id="b"
     x1="25.336"
     x2="94.569"
     y1="98.33"
     y2="36.847"
     gradientTransform="matrix(1 0 0 -1 0 128)"
     gradientUnits="userSpaceOnUse"><stop
       offset="0"
       stop-color="#2d4664"
       id="stop9" /><stop
       offset=".169"
       stop-color="#29405b"
       id="stop11" /><stop
       offset=".445"
       stop-color="#1e2f43"
       id="stop13" /><stop
       offset=".79"
       stop-color="#0c131b"
       id="stop15" /><stop
       offset="1"
       id="stop17" /></linearGradient><path
     fill="url(#b)"
     fill-rule="evenodd"
     d="M120.3 18.5H28.5c-2.9 0-5.7 2.3-6.4 5.2L3.7 104.3c-.7 2.9 1.1 5.2 4 5.2h91.8c2.9 0 5.7-2.3 6.4-5.2l18.4-80.5c.7-2.9-1.1-5.3-4-5.3z"
     clip-rule="evenodd"
     id="path20" /><path
     fill="#2C5591"
     fill-rule="evenodd"
     d="M64.2 88.3h22.3c2.6 0 4.7 2.2 4.7 4.9s-2.1 4.9-4.7 4.9H64.2c-2.6 0-4.7-2.2-4.7-4.9s2.1-4.9 4.7-4.9zM78.7 66.5c-.4.8-1.2 1.6-2.6 2.6L34.6 98.9c-2.3 1.6-5.5 1-7.3-1.4-1.7-2.4-1.3-5.7.9-7.3l37.4-27.1v-.6l-23.5-25c-1.9-2-1.7-5.3.4-7.4 2.2-2 5.5-2 7.4 0l28.2 30c1.7 1.9 1.8 4.5.6 6.4z"
     clip-rule="evenodd"
     id="path22" /><path
     fill="#FFF"
     fill-rule="evenodd"
     d="M77.6 65.5c-.4.8-1.2 1.6-2.6 2.6L33.6 97.9c-2.3 1.6-5.5 1-7.3-1.4-1.7-2.4-1.3-5.7.9-7.3l37.4-27.1v-.6l-23.5-25c-1.9-2-1.7-5.3.4-7.4 2.2-2 5.5-2 7.4 0l28.2 30c1.7 1.8 1.8 4.4.5 6.4zM63.5 87.8h22.3c2.6 0 4.7 2.1 4.7 4.6 0 2.6-2.1 4.6-4.7 4.6H63.5c-2.6 0-4.7-2.1-4.7-4.6 0-2.6 2.1-4.6 4.7-4.6z"
     clip-rule="evenodd"
     id="path24" /></svg>
