<?xml version="1.0" encoding="UTF-8" standalone="no"?>
<svg
   viewBox="0 0 128 128"
   version="1.1"
   id="svg14"
   sodipodi:docname="devicon-devicon-origina.svg"
   xmlns:inkscape="http://www.inkscape.org/namespaces/inkscape"
   xmlns:sodipodi="http://sodipodi.sourceforge.net/DTD/sodipodi-0.dtd"
   xmlns="http://www.w3.org/2000/svg"
   xmlns:svg="http://www.w3.org/2000/svg">
  <defs
     id="defs18" />
  <sodipodi:namedview
     id="namedview16"
     pagecolor="#ffffff"
     bordercolor="#000000"
     borderopacity="0.25"
     inkscape:showpageshadow="2"
     inkscape:pageopacity="0.0"
     inkscape:pagecheckerboard="0"
     inkscape:deskcolor="#d1d1d1" />
  <path
     fill="#558d6c"
     d="M4.92 8l10.17 87.05L64 119.95V8H4.92z"
     id="path2" />
  <path
     fill="#5aa579"
     d="M64 8v111.95l.05.05 48.93-24.91L123.08 8H64z"
     id="path4" />
  <path
     fill="#60be86"
     d="M18.84 22.11l6.49 65.18L64 105.97V22.11H18.84z"
     id="path6" />
  <path
     fill="#65d693"
     d="M64 22.11v83.86l.05.05 38.69-18.76 6.42-65.15H64z"
     id="path8" />
  <path
     fill="#5aa579"
     d="M105.72 54.9L73.14 39.42l-1.83-.9-1.12 2.28L64 53.41V68.3l9.15-18.08 21.5 9.57-23.09 10.37-.87.47v10.88L73 80.38l32.78-15.69a2 2 0 00.92-2v-5.78a2 2 0 00-.98-2.01z"
     id="path10" />
  <path
     fill="#558d6c"
     d="M56 69.39l-21.79-9.6 23.3-10.37 1.76-.7V37.76l-3.4 1.44-33.93 15.69a2.26 2.26 0 00-1.28 2v5.77a2.22 2.22 0 001.24 2l33.44 15.52 2 .9 1.21-2.26L64 68.3V53.41z"
     id="path12" />
</svg>
