<?xml version="1.0" encoding="UTF-8" standalone="no"?>
<svg
   width="128"
   height="128"
   viewBox="0 0 128 128"
   version="1.1"
   id="svg4"
   sodipodi:docname="devicon-sema-origina.svg"
   xmlns:inkscape="http://www.inkscape.org/namespaces/inkscape"
   xmlns:sodipodi="http://sodipodi.sourceforge.net/DTD/sodipodi-0.dtd"
   xmlns="http://www.w3.org/2000/svg"
   xmlns:svg="http://www.w3.org/2000/svg">
  <defs
     id="defs8" />
  <sodipodi:namedview
     id="namedview6"
     pagecolor="#ffffff"
     bordercolor="#000000"
     borderopacity="0.25"
     inkscape:showpageshadow="2"
     inkscape:pageopacity="0.0"
     inkscape:pagecheckerboard="0"
     inkscape:deskcolor="#d1d1d1" />
  <path
     style="stroke:none;fill-rule:nonzero;fill:#000;fill-opacity:1"
     d="M63.93 0C28.633 0 0 28.664 0 64s28.633 64 63.93 64c35.293 0 63.93-28.664 63.93-64S99.222 0 63.93 0ZM32.469 101.656l22.035-81.922h12.25l-22.031 81.922Zm70.355-30.094-6.691 5.418-10.645-12.085L74.395 76.98l-6.957-5.12 8.8-13.368L61.73 52.81l2.586-9.258 15.313 3.988 1.277-15.21h8.684l1.277 15.21 14.512-3.691 2.973 8.96-14.36 5.684Zm0 0"
     id="path2" />
</svg>
