<?xml version="1.0" encoding="UTF-8" standalone="no"?>
<svg
   viewBox="0 0 128 128"
   version="1.1"
   id="svg6"
   sodipodi:docname="devicon-ansible-origina.svg"
   xmlns:inkscape="http://www.inkscape.org/namespaces/inkscape"
   xmlns:sodipodi="http://sodipodi.sourceforge.net/DTD/sodipodi-0.dtd"
   xmlns="http://www.w3.org/2000/svg"
   xmlns:svg="http://www.w3.org/2000/svg">
  <defs
     id="defs10" />
  <sodipodi:namedview
     id="namedview8"
     pagecolor="#ffffff"
     bordercolor="#000000"
     borderopacity="0.25"
     inkscape:showpageshadow="2"
     inkscape:pageopacity="0.0"
     inkscape:pagecheckerboard="0"
     inkscape:deskcolor="#d1d1d1" />
  <path
     fill="#1A1918"
     d="M126 64c0 34.2-27.8 62-62 62S2 98.2 2 64 29.8 2 64 2s62 27.8 62 62"
     id="path2" />
  <path
     fill="#FFF"
     d="M65 39.9l16 39.6-24.1-19.1L65 39.9zm28.5 48.7L68.9 29.2c-.7-1.7-2.1-2.6-3.8-2.6-1.7 0-3.2.9-3.9 2.6L34 94.3h9.3L54 67.5l32 25.9c1.3 1 2.2 1.5 3.4 1.5 2.4 0 4.5-1.8 4.5-4.4.1-.5-.1-1.2-.4-1.9z"
     id="path4" />
</svg>
