<?xml version="1.0" encoding="UTF-8" standalone="no"?>
<svg
   viewBox="0 0 128 128"
   version="1.1"
   id="svg4"
   sodipodi:docname="devicon-prisma-origina.svg"
   xmlns:inkscape="http://www.inkscape.org/namespaces/inkscape"
   xmlns:sodipodi="http://sodipodi.sourceforge.net/DTD/sodipodi-0.dtd"
   xmlns="http://www.w3.org/2000/svg"
   xmlns:svg="http://www.w3.org/2000/svg">
  <defs
     id="defs8" />
  <sodipodi:namedview
     id="namedview6"
     pagecolor="#ffffff"
     bordercolor="#000000"
     borderopacity="0.25"
     inkscape:showpageshadow="2"
     inkscape:pageopacity="0.0"
     inkscape:pagecheckerboard="0"
     inkscape:deskcolor="#d1d1d1" />
  <path
     fill="#2d3748"
     d="M66.457.014a6.308 6.308 0 0 0-5.812 3.028l-47.87 78.072a6.379 6.379 0 0 0 .048 6.748l23.568 37.186a6.387 6.387 0 0 0 7.22 2.683l68.012-20.407a6.37 6.37 0 0 0 3.96-8.765l-43.72-94.85A6.298 6.298 0 0 0 66.46.014Zm1.795 23.95a2.348 2.348 0 0 1 2.448 1.433l30.16 69.784a2.39 2.39 0 0 1-1.512 3.241l-46.996 14.024a2.39 2.39 0 0 1-3.024-2.76l16.83-83.812a2.353 2.353 0 0 1 2.099-1.91z"
     id="path2" />
</svg>
