<?xml version="1.0" encoding="UTF-8" standalone="no"?>
<svg
   viewBox="0 0 128 128"
   version="1.1"
   id="svg4"
   sodipodi:docname="devicon-pandas-lin.svg"
   xmlns:inkscape="http://www.inkscape.org/namespaces/inkscape"
   xmlns:sodipodi="http://sodipodi.sourceforge.net/DTD/sodipodi-0.dtd"
   xmlns="http://www.w3.org/2000/svg"
   xmlns:svg="http://www.w3.org/2000/svg">
  <defs
     id="defs8" />
  <sodipodi:namedview
     id="namedview6"
     pagecolor="#ffffff"
     bordercolor="#000000"
     borderopacity="0.25"
     inkscape:showpageshadow="2"
     inkscape:pageopacity="0.0"
     inkscape:pagecheckerboard="0"
     inkscape:deskcolor="#d1d1d1" />
  <path
     fill="#130754"
     d="M89.548 0v96.798h14.872V0Zm.993.992h12.887v94.814H90.541ZM45.878 7.508v29.816H60.75V7.508Zm.992.992h12.888v27.831H46.87ZM23.58 31.202V128h14.872V31.201Zm44.137.034V61.05H82.59V31.236Zm-43.145.958h12.887v94.814H24.572Zm44.137.035h12.888v27.829H68.709ZM45.878 44.742v14.591H60.75v-14.59Zm.992.992h12.888v12.607H46.87Zm-.992 20.98v29.813H60.75V66.713Zm.992.991h12.888v27.83H46.87Zm20.847.772v14.591H82.59V68.477Zm.992.992h12.888v12.607H68.709Zm-.992 21.025v29.814H82.59V90.494Zm.992.992h12.888v27.83H68.709Z"
     id="path2" />
</svg>
