<?xml version="1.0" encoding="UTF-8" standalone="no"?>
<svg
   viewBox="0 0 128 128"
   version="1.1"
   id="svg8"
   sodipodi:docname="devicon-premierepro-origina.svg"
   xmlns:inkscape="http://www.inkscape.org/namespaces/inkscape"
   xmlns:sodipodi="http://sodipodi.sourceforge.net/DTD/sodipodi-0.dtd"
   xmlns="http://www.w3.org/2000/svg"
   xmlns:svg="http://www.w3.org/2000/svg">
  <defs
     id="defs12" />
  <sodipodi:namedview
     id="namedview10"
     pagecolor="#ffffff"
     bordercolor="#000000"
     borderopacity="0.25"
     inkscape:showpageshadow="2"
     inkscape:pageopacity="0.0"
     inkscape:pagecheckerboard="0"
     inkscape:deskcolor="#d1d1d1" />
  <path
     fill="#2A0634"
     d="M0 0h128v128H0z"
     id="path2" />
  <path
     fill="#E976B9"
     d="M0 0v128h128V0H0zm123 123H5V5h118v118z"
     id="path4" />
  <path
     fill="#E976B9"
     d="M69 47.1c-.1-9.4-7.8-16.9-17.2-16.8H33.3v58.5h9.6V67.5h8.3C61 67.4 69 59.3 69 49.4v-2.3zm-9.6 3c0 5-4.1 9.1-9.1 9.1h-7.4V38.5h7.4c5 0 9.1 4.1 9.1 9.1v2.5zM77.1 88.8V48.9s10.2-5.1 20.2-3.8v8.3s-7 0-10.1 1.3v34.2H77.1z"
     id="path6" />
</svg>
