<?xml version="1.0" encoding="UTF-8" standalone="no"?>
<svg
   viewBox="0 0 128 128"
   version="1.1"
   id="svg15"
   sodipodi:docname="devicon-minitab-origina.svg"
   xmlns:inkscape="http://www.inkscape.org/namespaces/inkscape"
   xmlns:sodipodi="http://sodipodi.sourceforge.net/DTD/sodipodi-0.dtd"
   xmlns="http://www.w3.org/2000/svg"
   xmlns:svg="http://www.w3.org/2000/svg">
  <defs
     id="defs19" />
  <sodipodi:namedview
     id="namedview17"
     pagecolor="#ffffff"
     bordercolor="#000000"
     borderopacity="0.25"
     inkscape:showpageshadow="2"
     inkscape:pageopacity="0.0"
     inkscape:pagecheckerboard="0"
     inkscape:deskcolor="#d1d1d1" />
  <path
     fill="#8DC63F"
     d="M0 0h128v128H0z"
     id="path2" />
  <linearGradient
     id="minitab-original-a"
     gradientUnits="userSpaceOnUse"
     x1="99.32"
     y1="-254.43"
     x2="21.21"
     y2="-332.79"
     gradientTransform="translate(0 374)">
    <stop
       offset="0"
       stop-color="#8DC63F"
       stop-opacity=".2"
       id="stop4" />
    <stop
       offset="1"
       stop-opacity=".2"
       id="stop6" />
  </linearGradient>
  <path
     fill="url(#minitab-original-a)"
     d="M41 128l-26.2-21.7 19.8-53.9 19.2 17.9V19.4h7.9l21 23.5 6.1-5.3L113.9 70l2.1-1.5 12 16.1v43.2z"
     id="path9" />
  <path
     fill="#FFF"
     d="M42 19.4h19.7v86.9H42zM69.1 37.6h19.7v68.7H69.1zM96.3 68.5H116v37.8H96.3zM14.8 52.4h19.7v53.9H14.8z"
     id="path11" />
  <path
     fill="#D1D1D2"
     d="M14.8 100.3l19.8-7.4v13.4H14.8zM61.7 71.9v34.4H42V89.1zM69.1 71.9l19.7 14.5v19.9H69.1zM96.3 86.2l19.7-7.6v27.7H96.3z"
     id="path13" />
</svg>
