<?xml version="1.0" encoding="UTF-8" standalone="no"?>
<svg
   viewBox="0 0 128 128"
   version="1.1"
   id="svg22"
   sodipodi:docname="devicon-haxe-origina.svg"
   xmlns:inkscape="http://www.inkscape.org/namespaces/inkscape"
   xmlns:sodipodi="http://sodipodi.sourceforge.net/DTD/sodipodi-0.dtd"
   xmlns="http://www.w3.org/2000/svg"
   xmlns:svg="http://www.w3.org/2000/svg">
  <defs
     id="defs26" />
  <sodipodi:namedview
     id="namedview24"
     pagecolor="#ffffff"
     bordercolor="#000000"
     borderopacity="0.25"
     inkscape:showpageshadow="2"
     inkscape:pageopacity="0.0"
     inkscape:pagecheckerboard="0"
     inkscape:deskcolor="#d1d1d1" />
  <path
     fill="#F6B214"
     d="M15.7 64l48.4-48.4L0 0z"
     id="path2" />
  <path
     fill="#F17321"
     d="M64 15.7l48.4 48.4L128 0z"
     id="path4" />
  <path
     fill="#EF5E21"
     d="M112.3 64l-48.4 48.4L128 128z"
     id="path6" />
  <path
     fill="#F6B214"
     d="M64 112.3L15.6 63.9 0 128z"
     id="path8" />
  <path
     fill="#EA8220"
     d="M15.6 63.9L64 15.7 112.3 64 64 112.3z"
     id="path10" />
  <path
     fill="#F8EF23"
     d="M15.6 63.9L0 32V0zM0 128V96l15.6-32.1z"
     id="path12" />
  <path
     fill="#F8C713"
     d="M0 0h32l32 15.7zM128 0L64 15.7 96 0z"
     id="path14" />
  <path
     fill="#EC4822"
     d="M112.3 64L128 0v32zM128 128V96l-15.7-32z"
     id="path16" />
  <path
     fill="#EF5E21"
     d="M0 128l64-15.7L32 128z"
     id="path18" />
  <path
     fill="#EA8220"
     d="M128 128H96l-32-15.7z"
     id="path20" />
</svg>
