<?xml version="1.0" encoding="UTF-8" standalone="no"?>
<svg
   viewBox="0 0 128 128"
   version="1.1"
   id="svg13"
   sodipodi:docname="devicon-trello-origina.svg"
   xmlns:inkscape="http://www.inkscape.org/namespaces/inkscape"
   xmlns:sodipodi="http://sodipodi.sourceforge.net/DTD/sodipodi-0.dtd"
   xmlns="http://www.w3.org/2000/svg"
   xmlns:svg="http://www.w3.org/2000/svg">
  <sodipodi:namedview
     id="namedview15"
     pagecolor="#ffffff"
     bordercolor="#000000"
     borderopacity="0.25"
     inkscape:showpageshadow="2"
     inkscape:pageopacity="0.0"
     inkscape:pagecheckerboard="0"
     inkscape:deskcolor="#d1d1d1" />
  <defs
     id="defs7">
    <linearGradient
       id="a"
       x1="128"
       x2="128"
       y1="0"
       y2="256"
       gradientTransform="scale(.5)"
       gradientUnits="userSpaceOnUse">
      <stop
         offset="0"
         stop-color="#2684ff"
         id="stop2" />
      <stop
         offset="1"
         stop-color="#0052cc"
         id="stop4" />
    </linearGradient>
  </defs>
  <path
     fill="url(#a)"
     d="M12.5 0h103c6.925 0 12.5 5.575 12.5 12.5v103c0 6.925-5.575 12.5-12.5 12.5h-103C5.575 128 0 122.425 0 115.5v-103C0 5.575 5.575 0 12.5 0Z"
     id="path9" />
  <path
     fill="#fff"
     d="M78.32 16.64h27.04c3.324 0 6 2.676 6 6v44c0 3.324-2.676 6-6 6H78.32c-3.324 0-6-2.676-6-6v-44c0-3.324 2.676-6 6-6zm-55.68 0h27.04c3.324 0 6 2.676 6 6v76c0 3.324-2.676 6-6 6H22.64c-3.324 0-6-2.676-6-6v-76c0-3.324 2.676-6 6-6z"
     id="path11" />
</svg>
