<?xml version="1.0" encoding="UTF-8" standalone="no"?>
<svg
   viewBox="0 0 128 128"
   version="1.1"
   id="svg13"
   sodipodi:docname="devicon-bitbucket-origina.svg"
   xmlns:inkscape="http://www.inkscape.org/namespaces/inkscape"
   xmlns:sodipodi="http://sodipodi.sourceforge.net/DTD/sodipodi-0.dtd"
   xmlns="http://www.w3.org/2000/svg"
   xmlns:svg="http://www.w3.org/2000/svg">
  <sodipodi:namedview
     id="namedview15"
     pagecolor="#ffffff"
     bordercolor="#000000"
     borderopacity="0.25"
     inkscape:showpageshadow="2"
     inkscape:pageopacity="0.0"
     inkscape:pagecheckerboard="0"
     inkscape:deskcolor="#d1d1d1" />
  <defs
     id="defs7">
    <linearGradient
       id="bitbucket-original-a"
       gradientUnits="userSpaceOnUse"
       x1="28.593"
       y1="14.226"
       x2="16.672"
       y2="23.532"
       gradientTransform="scale(4)">
      <stop
         offset=".176"
         stop-color="#0052cc"
         id="stop2" />
      <stop
         offset="1"
         stop-color="#2684ff"
         id="stop4" />
    </linearGradient>
  </defs>
  <path
     d="M19.082 20c-1.918 0-3.355 1.758-3.039 3.516l12.95 79.289c.32 2.078 2.077 3.515 4.155 3.515h62.66c1.442 0 2.72-1.12 3.04-2.558l13.109-80.086c.316-1.918-1.121-3.516-3.039-3.516zM74.07 77.227H54.09l-5.278-28.293h30.215zm0 0"
     fill="#2684ff"
     id="path9" />
  <path
     d="M107.64 48.934H78.868L74.07 77.227H54.09l-23.5 27.972s1.12.961 2.719.961h62.66c1.441 0 2.719-1.12 3.039-2.558zm0 0"
     fill="url(#bitbucket-original-a)"
     id="path11" />
</svg>
