<?xml version="1.0" encoding="UTF-8" standalone="no"?>
<svg
   viewBox="0 0 128 128"
   version="1.1"
   id="svg8"
   sodipodi:docname="devicon-woocommerce-origina.svg"
   xmlns:inkscape="http://www.inkscape.org/namespaces/inkscape"
   xmlns:sodipodi="http://sodipodi.sourceforge.net/DTD/sodipodi-0.dtd"
   xmlns="http://www.w3.org/2000/svg"
   xmlns:svg="http://www.w3.org/2000/svg">
  <defs
     id="defs12" />
  <sodipodi:namedview
     id="namedview10"
     pagecolor="#ffffff"
     bordercolor="#000000"
     borderopacity="0.25"
     inkscape:showpageshadow="2"
     inkscape:pageopacity="0.0"
     inkscape:pagecheckerboard="0"
     inkscape:deskcolor="#d1d1d1" />
  <path
     fill="#7f54b3"
     d="M116.3 89.1H11.7C5.2 89.1 0 83.9 0 77.4v-40C0 31 5.2 25.8 11.7 25.8h104.7c6.4 0 11.7 5.2 11.7 11.7v40c-.1 6.4-5.3 11.6-11.8 11.6z"
     id="path2" />
  <path
     fill="#FFF"
     d="M13.8 76.7s2.8 11.8 8.5 3.9 11.2-20.3 11.2-20.3.4-3.1 2 3.7S44 80 44 80s6.3 7.9 8.9-.4c-1-11 2.8-31 6.7-40.6 1.6-8.5-7.3-6.1-8.1-4.1s-6.3 14.8-6.7 28.2c0 0-4.7-12.8-5.1-17.4-.4-4.7-5.3-5.9-8.1-1.4S20.3 66.2 20.3 66.2l-5.5-28.4s-5.5-7.3-8.7 1.6c0 0 5.7 34.9 7.7 37.3zM87 45.7c-8.5-14.2-21.1-3.4-21.1-3.4s-9.6 11.1-5.3 26.2c6.9 14.9 16.6 8.3 19.2 7.1 2.7-1.3 14.1-14.3 7.2-29.9zm-6.5 12.5c0 5.9-4.9 11.4-8.9 10.2-2.2-1.3-3.6-4.8-3.6-10.8 2-9.7 6.4-11 8.7-10.8 4.3 2.3 4.1 7.4 3.8 11.4zM118.9 45.7c-8.5-14.2-21.1-3.4-21.1-3.4s-9.6 11.1-5.3 26.2c6.9 14.9 16.6 8.3 19.2 7.1 2.6-1.3 14.1-14.3 7.2-29.9zm-6.5 12.5c0 5.9-4.9 11.4-8.9 10.2-2.2-1.3-3.6-4.8-3.6-10.8 2-9.7 6.4-11 8.7-10.8 4.2 2.3 4 7.4 3.8 11.4z"
     id="path4" />
  <path
     fill="#7f54b3"
     d="M61.3 89.1l22.3 13.1-4.7-13.1-12.8-3.6z"
     id="path6" />
</svg>
