<?xml version="1.0" encoding="UTF-8" standalone="no"?>
<svg
   viewBox="0 0 128 128"
   version="1.1"
   id="svg22"
   sodipodi:docname="devicon-quarkus-origina.svg"
   xmlns:inkscape="http://www.inkscape.org/namespaces/inkscape"
   xmlns:sodipodi="http://sodipodi.sourceforge.net/DTD/sodipodi-0.dtd"
   xmlns="http://www.w3.org/2000/svg"
   xmlns:svg="http://www.w3.org/2000/svg">
  <defs
     id="defs26" />
  <sodipodi:namedview
     id="namedview24"
     pagecolor="#ffffff"
     bordercolor="#000000"
     borderopacity="0.25"
     inkscape:showpageshadow="2"
     inkscape:pageopacity="0.0"
     inkscape:pagecheckerboard="0"
     inkscape:deskcolor="#d1d1d1" />
  <path
     fill="#4695eb"
     d="M81.98 26.121 64 36.504l17.98 10.379Zm0 0"
     id="path2" />
  <path
     fill="#ff004a"
     d="M46.02 26.121v20.766L64 36.504Zm0 0"
     id="path4" />
  <path
     fill="#091313"
     d="M81.98 46.887 64 36.504 46.02 46.883 64 57.27Zm0 0"
     id="path6" />
  <path
     fill="#4695eb"
     d="m27.059 58.965 17.98 10.379V48.582Zm0 0"
     id="path8" />
  <path
     fill="#ff004a"
     d="m45.04 90.11 17.983-10.383L45.04 69.344Zm0 0"
     id="path10" />
  <path
     fill="#091313"
     d="M45.04 48.582v20.762l17.983 10.383V58.965Zm0 0"
     id="path12" />
  <path
     fill="#4695eb"
     d="M82.96 90.11V69.343L64.978 79.727Zm0 0"
     id="path14" />
  <path
     fill="#ff004a"
     d="m100.941 58.965-17.98-10.383v20.762Zm0 0"
     id="path16" />
  <path
     fill="#091313"
     d="M64.977 79.727 82.96 69.344V48.582L64.977 58.965Zm0 0"
     id="path18" />
  <path
     fill="#4695eb"
     d="M103.023 5.602H24.977c-10.66 0-19.375 8.714-19.375 19.375v78.046c0 10.66 8.714 19.375 19.375 19.375h53.449L64 87.355l-10.469 22.13H24.977c-3.5 0-6.461-2.962-6.461-6.462V24.977c0-3.5 2.96-6.461 6.46-6.461h78.051c3.5 0 6.461 2.96 6.461 6.46v78.047c0 3.5-2.96 6.461-6.46 6.461H86.09l5.316 12.914h11.617c10.66 0 19.375-8.714 19.375-19.375V24.977c0-10.66-8.714-19.375-19.375-19.375Zm0 0"
     id="path20" />
</svg>
