<?xml version="1.0" encoding="UTF-8" standalone="no"?>
<svg
   viewBox="0 0 128 128"
   version="1.1"
   id="svg8"
   sodipodi:docname="devicon-elasticsearch-origina.svg"
   xmlns:inkscape="http://www.inkscape.org/namespaces/inkscape"
   xmlns:sodipodi="http://sodipodi.sourceforge.net/DTD/sodipodi-0.dtd"
   xmlns="http://www.w3.org/2000/svg"
   xmlns:svg="http://www.w3.org/2000/svg">
  <defs
     id="defs12" />
  <sodipodi:namedview
     id="namedview10"
     pagecolor="#ffffff"
     bordercolor="#000000"
     borderopacity="0.25"
     inkscape:showpageshadow="2"
     inkscape:pageopacity="0.0"
     inkscape:pagecheckerboard="0"
     inkscape:deskcolor="#d1d1d1" />
  <path
     fill="#343741"
     d="M4 64c0 5.535.777 10.879 2.098 16H84c8.836 0 16-7.164 16-16s-7.164-16-16-16H6.098A63.738 63.738 0 0 0 4 64"
     id="path2" />
  <path
     fill="#fec514"
     d="M111.695 30.648A61.485 61.485 0 0 0 117.922 24C106.188 9.379 88.199 0 68 0 42.715 0 20.957 14.71 10.574 36H98.04a20.123 20.123 0 0 0 13.652-5.352"
     id="path4" />
  <path
     fill="#00bfb3"
     d="M98.04 92H10.577C20.961 113.29 42.715 128 68 128c20.2 0 38.188-9.383 49.922-24a61.1 61.1 0 0 0-6.227-6.648A20.133 20.133 0 0 0 98.04 92"
     id="path6" />
</svg>
