<?xml version="1.0" encoding="UTF-8" standalone="no"?>
<svg
   viewBox="0 0 128 128"
   version="1.1"
   id="svg62"
   sodipodi:docname="devicon-rollup-origina.svg"
   xmlns:inkscape="http://www.inkscape.org/namespaces/inkscape"
   xmlns:sodipodi="http://sodipodi.sourceforge.net/DTD/sodipodi-0.dtd"
   xmlns="http://www.w3.org/2000/svg"
   xmlns:svg="http://www.w3.org/2000/svg">
  <defs
     id="defs66" />
  <sodipodi:namedview
     id="namedview64"
     pagecolor="#ffffff"
     bordercolor="#000000"
     borderopacity="0.25"
     inkscape:showpageshadow="2"
     inkscape:pageopacity="0.0"
     inkscape:pagecheckerboard="0"
     inkscape:deskcolor="#d1d1d1" />
  <linearGradient
     id="a"
     gradientUnits="userSpaceOnUse"
     x1="51.359"
     y1="61.956"
     x2="84.819"
     y2="54.135"
     gradientTransform="matrix(1 0 0 -1 0 130)">
    <stop
       offset="0"
       style="stop-color:#ff6533"
       id="stop2" />
    <stop
       offset=".157"
       style="stop-color:#ff5633"
       id="stop4" />
    <stop
       offset=".434"
       style="stop-color:#ff4333"
       id="stop6" />
    <stop
       offset=".714"
       style="stop-color:#ff3733"
       id="stop8" />
    <stop
       offset="1"
       style="stop-color:#f33"
       id="stop10" />
  </linearGradient>
  <path
     fill="url(#a)"
     d="M111.442 42.825c0-7.3-1.912-14.144-5.28-20.076-8.93-9.191-28.354-11.32-33.177-.043-4.954 11.559 8.321 24.421 14.123 23.4 7.387-1.304-1.304-18.251-1.304-18.251 11.298 21.292 8.691 14.774-11.733 34.329s-41.281 60.814-44.323 62.552c-.13.087-.261.152-.413.217h80.107c1.412 0 2.325-1.499 1.695-2.759L90.193 80.739a1.898 1.898 0 0 1 .739-2.499c12.254-7.04 20.51-20.25 20.51-35.415z"
     id="path13" />
  <linearGradient
     id="b"
     gradientUnits="userSpaceOnUse"
     x1="46.123"
     y1="73.047"
     x2="106.089"
     y2="26.551"
     gradientTransform="matrix(1 0 0 -1 0 130)">
    <stop
       offset="0"
       style="stop-color:#bf3338"
       id="stop15" />
    <stop
       offset="1"
       style="stop-color:#f33"
       id="stop17" />
  </linearGradient>
  <path
     fill="url(#b)"
     d="M111.442 42.825c0-7.3-1.912-14.144-5.28-20.076-8.93-9.191-28.354-11.32-33.177-.043-4.954 11.559 8.321 24.421 14.123 23.4 7.387-1.304-1.304-18.251-1.304-18.251 11.298 21.292 8.691 14.774-11.733 34.329s-41.281 60.814-44.323 62.552c-.13.087-.261.152-.413.217h80.107c1.412 0 2.325-1.499 1.695-2.759L90.193 80.739a1.898 1.898 0 0 1 .739-2.499c12.254-7.04 20.51-20.25 20.51-35.415z"
     id="path20" />
  <linearGradient
     id="c"
     gradientUnits="userSpaceOnUse"
     x1="48.083"
     y1="63.893"
     x2="56.774"
     y2="54.768"
     gradientTransform="matrix(1 0 0 -1 0 130)">
    <stop
       offset="0"
       style="stop-color:#ff6533"
       id="stop22" />
    <stop
       offset=".157"
       style="stop-color:#ff5633"
       id="stop24" />
    <stop
       offset=".434"
       style="stop-color:#ff4333"
       id="stop26" />
    <stop
       offset=".714"
       style="stop-color:#ff3733"
       id="stop28" />
    <stop
       offset="1"
       style="stop-color:#f33"
       id="stop30" />
  </linearGradient>
  <path
     fill="url(#c)"
     d="M29.748 124.736c3.042-1.738 23.9-43.019 44.323-62.574s23.031-13.036 11.733-34.329c0 0-43.237 60.618-58.88 90.602"
     id="path33" />
  <linearGradient
     id="d"
     gradientUnits="userSpaceOnUse"
     x1="63.885"
     y1="48.184"
     x2="61.278"
     y2="85.555"
     gradientTransform="matrix(1 0 0 -1 0 130)">
    <stop
       offset="0"
       style="stop-color:#ff6533"
       id="stop35" />
    <stop
       offset=".157"
       style="stop-color:#ff5633"
       id="stop37" />
    <stop
       offset=".434"
       style="stop-color:#ff4333"
       id="stop39" />
    <stop
       offset=".714"
       style="stop-color:#ff3733"
       id="stop41" />
    <stop
       offset="1"
       style="stop-color:#f33"
       id="stop43" />
  </linearGradient>
  <path
     fill="url(#d)"
     d="M35.832 70.418c29.201-53.687 33.025-59.097 48.234-59.097 7.996 0 16.056 3.607 21.271 10.016C98.232 9.887 85.652 2.217 71.247 2H21.644c-1.043 0-1.89.847-1.89 1.89v99.988c2.955-7.626 7.974-18.533 16.078-33.46z"
     id="path46" />
  <linearGradient
     id="e"
     gradientUnits="userSpaceOnUse"
     x1="52.589"
     y1="64.534"
     x2="64.934"
     y2="56.139"
     gradientTransform="matrix(1 0 0 -1 0 130)">
    <stop
       offset="0"
       style="stop-color:#fbb040"
       id="stop48" />
    <stop
       offset="1"
       style="stop-color:#fb8840"
       id="stop50" />
  </linearGradient>
  <path
     fill="url(#e)"
     d="M74.071 62.162c-20.423 19.554-41.281 60.836-44.323 62.574s-8.148 1.955-10.863-1.086c-2.89-3.237-7.387-8.474 16.947-53.231 29.201-53.687 33.025-59.097 48.234-59.097 7.996 0 16.056 3.607 21.271 10.016.282.456.565.934.847 1.412-8.93-9.191-28.354-11.32-33.177-.043-4.954 11.559 8.321 24.421 14.123 23.4 7.387-1.304-1.304-18.251-1.304-18.251 11.276 21.27 8.669 14.752-11.755 34.306z"
     id="path53" />
  <linearGradient
     id="f"
     gradientUnits="userSpaceOnUse"
     x1="65.237"
     y1="111.996"
     x2="52.636"
     y2="-26.622"
     gradientTransform="matrix(1 0 0 -1 0 130)">
    <stop
       offset="0"
       style="stop-color:#fff"
       id="stop55" />
    <stop
       offset="1"
       style="stop-color:#fff;stop-opacity:0"
       id="stop57" />
  </linearGradient>
  <path
     opacity=".3"
     fill="url(#f)"
     d="M38.222 72.808c29.201-53.687 33.025-59.097 48.234-59.097 6.583 0 13.21 2.455 18.251 6.887-5.214-5.953-12.949-9.277-20.641-9.277-15.209 0-19.033 5.41-48.234 59.097-24.334 44.758-19.837 49.994-16.947 53.231.413.456.891.847 1.391 1.173-2.543-3.693-3.672-12.275 17.946-52.014z"
     id="path60" />
</svg>
