<?xml version="1.0" encoding="UTF-8" standalone="no"?>
<svg
   viewBox="0 0 128 128"
   version="1.1"
   id="svg6"
   sodipodi:docname="devicon-cakephp-origina.svg"
   xmlns:inkscape="http://www.inkscape.org/namespaces/inkscape"
   xmlns:sodipodi="http://sodipodi.sourceforge.net/DTD/sodipodi-0.dtd"
   xmlns="http://www.w3.org/2000/svg"
   xmlns:svg="http://www.w3.org/2000/svg">
  <defs
     id="defs10" />
  <sodipodi:namedview
     id="namedview8"
     pagecolor="#ffffff"
     bordercolor="#000000"
     borderopacity="0.25"
     inkscape:showpageshadow="2"
     inkscape:pageopacity="0.0"
     inkscape:pagecheckerboard="0"
     inkscape:deskcolor="#d1d1d1" />
  <g
     fill="#d43d44"
     id="g4">
    <path
       d="M2 73.69V93c0 10.69 27.75 19.35 62 19.35V93C29.75 93 2 84.36 2 73.69zM64 54.34l48.5 12c8.44-3.3 13.51-7.5 13.51-12V35c0-10.68-27.76-19.35-62-19.35S2 24.29 2 35v19.34C2 65 29.75 73.69 64 73.69V54.34zM112.49 85.74L64 73.69V93l48.5 12.05c8.43-3.27 13.5-7.46 13.5-12.05V73.69c0 4.55-5.07 8.74-13.51 12.05z"
       id="path2" />
  </g>
</svg>
