<?xml version="1.0" encoding="UTF-8" standalone="no"?>
<svg
   viewBox="0 0 128 128"
   version="1.1"
   id="svg4"
   sodipodi:docname="devicon-trello-lin.svg"
   xmlns:inkscape="http://www.inkscape.org/namespaces/inkscape"
   xmlns:sodipodi="http://sodipodi.sourceforge.net/DTD/sodipodi-0.dtd"
   xmlns="http://www.w3.org/2000/svg"
   xmlns:svg="http://www.w3.org/2000/svg">
  <defs
     id="defs8" />
  <sodipodi:namedview
     id="namedview6"
     pagecolor="#ffffff"
     bordercolor="#000000"
     borderopacity="0.25"
     inkscape:showpageshadow="2"
     inkscape:pageopacity="0.0"
     inkscape:pagecheckerboard="0"
     inkscape:deskcolor="#d1d1d1" />
  <path
     fill="#0052cc"
     d="M12.889 0A12.864 12.864 0 0 0 0 12.889v102.222A12.864 12.864 0 0 0 12.889 128h102.222A12.864 12.864 0 0 0 128 115.111V12.889A12.864 12.864 0 0 0 115.111 0Zm0 .984h102.222a11.866 11.866 0 0 1 11.905 11.905v102.222a11.866 11.866 0 0 1-11.905 11.905H12.889A11.866 11.866 0 0 1 .984 115.11V12.889A11.866 11.866 0 0 1 12.89.984zm10.069 15.52a6.454 6.454 0 0 0-6.454 6.454V98.38c0 3.565 2.89 6.435 6.454 6.435h26.838a6.421 6.421 0 0 0 6.435-6.435V22.958c0-3.565-2.87-6.454-6.435-6.454zm55.246 0a6.454 6.454 0 0 0-6.454 6.454V66.62a6.454 6.454 0 0 0 6.454 6.454h26.838a6.454 6.454 0 0 0 6.454-6.454V22.958a6.454 6.454 0 0 0-6.454-6.454zm-55.246 1.003h26.838a5.423 5.423 0 0 1 5.45 5.45V98.38a5.423 5.423 0 0 1-5.45 5.45H22.958a5.423 5.423 0 0 1-5.451-5.45V22.958a5.423 5.423 0 0 1 5.45-5.45zm55.246 0h26.838a5.423 5.423 0 0 1 5.451 5.45v43.664a5.423 5.423 0 0 1-5.45 5.451h-26.84a5.423 5.423 0 0 1-5.45-5.45V22.957a5.423 5.423 0 0 1 5.45-5.45z"
     id="path2" />
</svg>
