<?xml version="1.0" encoding="UTF-8" standalone="no"?>
<svg
   viewBox="0 0 128 128"
   version="1.1"
   id="svg6"
   sodipodi:docname="devicon-shotgrid-origina.svg"
   xmlns:inkscape="http://www.inkscape.org/namespaces/inkscape"
   xmlns:sodipodi="http://sodipodi.sourceforge.net/DTD/sodipodi-0.dtd"
   xmlns="http://www.w3.org/2000/svg"
   xmlns:svg="http://www.w3.org/2000/svg">
  <defs
     id="defs10" />
  <sodipodi:namedview
     id="namedview8"
     pagecolor="#ffffff"
     bordercolor="#000000"
     borderopacity="0.25"
     inkscape:showpageshadow="2"
     inkscape:pageopacity="0.0"
     inkscape:pagecheckerboard="0"
     inkscape:deskcolor="#d1d1d1" />
  <circle
     cx="64"
     cy="64"
     r="62"
     id="circle2" />
  <path
     fill="#FFF"
     d="M36 70.7l-15.4 1.5c.9 3.9 2.9 7 6.1 9.2 3.1 2.1 8.4 3.2 15.9 3.2 5.2 0 9.4-.7 12.5-2 3-1.3 5.3-3.1 6.7-5.4 1.4-2.3 2.1-4.6 2.1-7 0-2.4-.7-4.5-2-6.5s-3.3-3.5-5.8-4.6c-2.5-1.1-6.4-1.9-11.6-2.5-3.4-.4-5.6-.9-6.7-1.4-1-.5-1.5-1.3-1.5-2.3 0-.9.4-1.7 1.2-2.3.8-.6 2.1-.9 3.9-.9 1.7 0 3.2.4 4.4 1.2.9.6 1.5 1.6 1.9 2.9l14.8-1.5c-1-2.7-2.3-4.8-3.9-6.4-1.5-1.6-3.5-2.8-5.8-3.5-2.3-.8-5.9-1.1-10.8-1.1-4.6 0-8.3.5-11 1.5-2.7 1-4.9 2.4-6.4 4.4-1.6 2-2.3 4.3-2.3 7 0 2.5.7 4.7 2.2 6.7 1.4 2 3.2 3.3 5.3 4.1 2.1.8 5.9 1.7 11.3 2.7 3.6.6 5.9 1.2 6.7 1.6 1.2.6 1.7 1.5 1.7 2.7 0 1-.4 1.9-1.3 2.5-1.2.9-2.8 1.4-4.9 1.4-1.9 0-3.4-.4-4.6-1.2-1.2-.8-2.1-2.1-2.7-4zm31.1-8.2c0-12.3 9.7-22.2 23.2-22.2 6.3 0 11 1.5 13.9 2.8l.2.1v10.6l-.6-.3c-2.7-1.2-6.8-2.8-12.6-2.8-4 0-7.1 1.4-9.2 3.5-2.1 2.1-3.2 5-3.2 8.1 0 6.3 4.4 11.7 11.8 11.7 1.4 0 2.9-.2 4-.4V62.8h11.2v18.5l-.2.1c-4.1 2-9.7 3.2-15 3.2-13.9.1-23.5-9.6-23.5-22.1z"
     id="path4" />
</svg>
