<?xml version="1.0" encoding="UTF-8" standalone="no"?>
<svg
   viewBox="0 0 128 128"
   version="1.1"
   id="svg50"
   sodipodi:docname="devicon-clion-origina.svg"
   xmlns:inkscape="http://www.inkscape.org/namespaces/inkscape"
   xmlns:sodipodi="http://sodipodi.sourceforge.net/DTD/sodipodi-0.dtd"
   xmlns="http://www.w3.org/2000/svg"
   xmlns:svg="http://www.w3.org/2000/svg">
  <sodipodi:namedview
     id="namedview52"
     pagecolor="#ffffff"
     bordercolor="#000000"
     borderopacity="0.25"
     inkscape:showpageshadow="2"
     inkscape:pageopacity="0.0"
     inkscape:pagecheckerboard="0"
     inkscape:deskcolor="#d1d1d1" />
  <defs
     id="defs36">
    <linearGradient
       id="a"
       gradientUnits="userSpaceOnUse"
       x1="39.01"
       y1="23.27"
       x2="66.51"
       y2="23.27"
       gradientTransform="rotate(.104) scale(1.21905)">
      <stop
         offset="0"
         stop-color="#ff318c"
         id="stop2" />
      <stop
         offset=".15"
         stop-color="#fb348c"
         id="stop4" />
      <stop
         offset=".28"
         stop-color="#f03c8c"
         id="stop6" />
      <stop
         offset=".42"
         stop-color="#de4a8c"
         id="stop8" />
      <stop
         offset=".54"
         stop-color="#c45d8b"
         id="stop10" />
      <stop
         offset=".67"
         stop-color="#a2778b"
         id="stop12" />
      <stop
         offset=".79"
         stop-color="#79958a"
         id="stop14" />
      <stop
         offset=".91"
         stop-color="#49b98a"
         id="stop16" />
      <stop
         offset="1"
         stop-color="#21d789"
         id="stop18" />
    </linearGradient>
    <linearGradient
       id="b"
       gradientUnits="userSpaceOnUse"
       x1="27.99"
       y1="16.68"
       x2="13.87"
       y2="111.42"
       gradientTransform="rotate(.104) scale(1.21905)">
      <stop
         offset=".09"
         stop-color="#21d789"
         id="stop21" />
      <stop
         offset=".9"
         stop-color="#009ae5"
         id="stop23" />
    </linearGradient>
    <linearGradient
       id="c"
       gradientUnits="userSpaceOnUse"
       x1="92.05"
       y1="13.4"
       x2="-4.53"
       y2="115.4"
       gradientTransform="rotate(.104) scale(1.21905)">
      <stop
         offset=".09"
         stop-color="#21d789"
         id="stop26" />
      <stop
         offset=".9"
         stop-color="#009ae5"
         id="stop28" />
    </linearGradient>
    <linearGradient
       id="d"
       gradientUnits="userSpaceOnUse"
       x1="62.84"
       y1="77.02"
       x2="95.87"
       y2="81.72"
       gradientTransform="rotate(.104) scale(1.21905)">
      <stop
         offset=".09"
         stop-color="#21d789"
         id="stop31" />
      <stop
         offset=".9"
         stop-color="#009ae5"
         id="stop33" />
    </linearGradient>
  </defs>
  <path
     fill="url(#a)"
     d="M47.555 51.25 50.09 5.484l26.613 14.75Zm0 0"
     id="path38" />
  <path
     fill="url(#b)"
     d="M47.555 51.25 50.09 5.484 16.297 26.781 5.484 91.527Zm0 0"
     id="path40" />
  <path
     fill="url(#c)"
     d="m120.188 40.559-15.06-30.61-28.425 10.285L47.555 51.25 5.485 91.527l37.949 27.621 47.703-43.02Zm0 0"
     id="path42" />
  <path
     fill="url(#d)"
     d="M100.57 72.582v27.988H54.613l20.2 15.63 29.257 6.316 18.446-41.754Zm0 0"
     id="path44" />
  <path
     fill="#000"
     d="M27.43 27.43h73.14v73.14H27.43Zm0 0"
     id="path46" />
  <path
     fill="#fff"
     d="M36.547 86.746h27.43v4.574h-27.43ZM64.063 36.5h6.093v22.418h12.008V64H64.062ZM34.597 50.434v-.075a14.06 14.06 0 0 1 4.156-10.234 14.06 14.06 0 0 1 10.266-4.078 14.282 14.282 0 0 1 10.898 4.266l-3.84 4.476a10.222 10.222 0 0 0-7.086-3.121c-4.656 0-8.008 3.863-8.008 8.605v.086c0 4.743 3.278 8.692 8.008 8.692 3.172 0 5.098-1.219 7.317-3.242l3.8 3.925a14.138 14.138 0 0 1-11.347 4.875 13.94 13.94 0 0 1-10.082-4.09 13.94 13.94 0 0 1-4.082-10.085"
     id="path48" />
</svg>
