<?xml version="1.0" encoding="UTF-8" standalone="no"?>
<svg
   viewBox="0 0 128 128"
   version="1.1"
   id="svg20"
   sodipodi:docname="devicon-supabase-origina.svg"
   xmlns:inkscape="http://www.inkscape.org/namespaces/inkscape"
   xmlns:sodipodi="http://sodipodi.sourceforge.net/DTD/sodipodi-0.dtd"
   xmlns="http://www.w3.org/2000/svg"
   xmlns:svg="http://www.w3.org/2000/svg">
  <sodipodi:namedview
     id="namedview22"
     pagecolor="#ffffff"
     bordercolor="#000000"
     borderopacity="0.25"
     inkscape:showpageshadow="2"
     inkscape:pageopacity="0.0"
     inkscape:pagecheckerboard="0"
     inkscape:deskcolor="#d1d1d1" />
  <defs
     id="defs12">
    <linearGradient
       id="a"
       x1="53.974"
       x2="94.163"
       y1="54.974"
       y2="71.829"
       gradientTransform="translate(29.387 60.096) scale(1.1436)"
       gradientUnits="userSpaceOnUse">
      <stop
         offset="0"
         stop-color="#249361"
         id="stop2" />
      <stop
         offset="1"
         stop-color="#3ecf8e"
         id="stop4" />
    </linearGradient>
    <linearGradient
       id="b"
       x1="36.156"
       x2="54.484"
       y1="30.578"
       y2="65.081"
       gradientTransform="translate(29.387 60.096) scale(1.1436)"
       gradientUnits="userSpaceOnUse">
      <stop
         offset="0"
         id="stop7" />
      <stop
         offset="1"
         stop-opacity="0"
         id="stop9" />
    </linearGradient>
  </defs>
  <path
     fill="url(#a)"
     d="M102.24 186.21c-3.267 4.117-9.904 1.862-9.977-3.397l-1.156-76.906h51.715c9.365 0 14.587 10.817 8.763 18.149z"
     transform="translate(-27.722 -60.338)"
     id="path14" />
  <path
     fill="url(#b)"
     fill-opacity=".2"
     d="M102.24 186.21c-3.267 4.117-9.904 1.862-9.977-3.397l-1.156-76.906h51.715c9.365 0 14.587 10.817 8.763 18.149z"
     transform="translate(-27.722 -60.338)"
     id="path16" />
  <path
     fill="#3ecf8e"
     d="M53.484 2.128c3.267-4.117 9.905-1.862 9.977 3.396l.508 76.907H12.902c-9.365 0-14.587-10.817-8.764-18.149z"
     id="path18" />
</svg>
