<?xml version="1.0" encoding="UTF-8" standalone="no"?>
<svg
   viewBox="0 0 128 128"
   version="1.1"
   id="svg6"
   sodipodi:docname="devicon-vertx-origina.svg"
   xmlns:inkscape="http://www.inkscape.org/namespaces/inkscape"
   xmlns:sodipodi="http://sodipodi.sourceforge.net/DTD/sodipodi-0.dtd"
   xmlns="http://www.w3.org/2000/svg"
   xmlns:svg="http://www.w3.org/2000/svg">
  <defs
     id="defs10" />
  <sodipodi:namedview
     id="namedview8"
     pagecolor="#ffffff"
     bordercolor="#000000"
     borderopacity="0.25"
     inkscape:showpageshadow="2"
     inkscape:pageopacity="0.0"
     inkscape:pagecheckerboard="0"
     inkscape:deskcolor="#d1d1d1" />
  <path
     fill="#782a91"
     d="M16.878 0h94.244A16.84 16.84 0 0 1 128 16.878v94.244A16.84 16.84 0 0 1 111.122 128H16.878A16.84 16.84 0 0 1 0 111.122V16.878A16.84 16.84 0 0 1 16.878 0Z"
     id="path2" />
  <path
     fill="#fff"
     d="M0 26.309v6.03l26.58 60.369 3.803 8.636h7.465a18.19 18.19 0 0 1-.014-.182A17.282 17.282 0 0 1 48.7 85.158l19.564-42.814L83.449 63.68l-17.19 24.276a17.282 17.282 0 0 1 6.129 12.809h7.79l13.896-19.624 9.234-13.04L127.8 33.519v-7.21h-18.394L94.869 47.554 80.295 26.31H56.852l.041.058L36.745 70.46l-19.44-44.15Zm109.788 46.199L98.84 88.215l8.456 12.55h20.502v-2.948Zm-54.672 17.87c-5.956 0-10.785 4.828-10.785 10.784 0 5.957 4.829 10.786 10.785 10.786 5.957 0 10.785-4.83 10.785-10.786 0-5.956-4.828-10.784-10.785-10.785Z"
     id="path4" />
</svg>
